<svg xmlns="http://www.w3.org/2000/svg" width="225" height="223" fill="none"><style>.s1{fill:#fff}</style><g id="Layer 1"><path fill-rule="evenodd" d="M1.5 124.4c2-2 5.3-2 7.3 0l38.6 38.2c2 2 2 5.2 0 7.2L8.8 207.9c-2 2-5.3 2-7.3 0-2-1.9-2-5.2 0-7.2l35-34.5-35-34.6c-2-2-2-5.2 0-7.2m50 92.7c0-2.8 2.3-5.1 5.1-5.1h51.5c2.8 0 5.1 2.3 5.1 5.1s-2.3 5.1-5.1 5.1H56.6c-2.8 0-5.1-2.3-5.1-5.1" style="fill:#aeffde"/><path fill-rule="evenodd" d="M152.3 30.2c-11.5-13.9-26.2-23.3-47-23.3-19.1 0-33.3 9.8-43.6 23.8-6.5.2-13.9.7-20.3 1.9-3.7.6-7.3 1.6-10.4 3-2.8 1.4-6.2 3.7-7.6 7.6-1.3 3.7-.3 7.2 1 9.8 1.3 2.7 3.3 5.2 5.5 7.6 3.6 3.9 8.2 7.8 12.8 11.4-2.6 8.9-4.5 17.9-6.1 26.7-6.8 39 24.5 71.1 62.8 72.6 13.5.5 27.5.9 40 .9 24.6 0 50.5-1.4 68.2-2.6 6.7-.5 11.1-5.2 12.9-10.3 1.7-5.1 1.1-11.4-3.1-16.1-16-18-26.6-40.7-36.9-62.9l-.2-.5c-8.5-18.1-16.8-36.2-28-49.6m-9 7.4c10.1 12.2 17.9 28.9 26.6 47.6l5.2-2.4-5.2 2.4.2.4c10.1 21.8 21.3 46 38.5 65.4 1 1.1 1.4 2.9.8 4.5s-1.6 2.3-2.6 2.4l.4 5.8-.4-5.8c-17.6 1.2-43.2 2.6-67.4 2.6-12.3 0-26.1-.4-39.6-.9-32.4-1.2-57-28-51.7-58.9l-5.5-.9 5.5.9c1.7-9.7 4-19.7 6.9-29.2.8-2.4-.1-4.9-2.1-6.4-5.4-4-10.7-8.4-14.4-12.4-1.8-2-3-3.6-3.6-4.9q-.2-.5-.3-.7.3-.3 1.5-.9c1.7-.8 4.2-1.5 7.4-2.1 6.4-1.2 14.4-1.7 21.3-1.8 1.9 0 3.7-.9 4.7-2.5 9-13.1 20.6-21.2 35.8-21.2 16.6 0 28.2 7.2 38 19" class="s1"/><path fill-rule="evenodd" d="M118.1 73c-3.2 0-5.8 2.7-5.8 5.9v6.8c.8 30.6 25.5 52.9 55.4 53.7 10.9.3 24.7 0 34.6-1.4 3.2-.5 5.4-3.4 5-6.6-.5-3.2-3.4-5.4-6.6-5-9 1.3-22.1 1.6-32.7 1.3-24.3-.6-43.4-18.5-44-42.2v-6.6c0-3.2-2.7-5.9-5.9-5.9M92.5 49.6c-3.2 0-5.8 2.6-5.8 5.8v4.3c0 3.2 2.6 5.9 5.8 5.9 3.3 0 5.9-2.7 5.9-5.9v-4.3c0-3.2-2.6-5.8-5.9-5.8M137 160.8c-3-1-6.4.6-7.4 3.7l-8.5 25.6c-1 3 .6 6.3 3.7 7.4 3.1 1 6.4-.7 7.4-3.7l8.5-25.6c1-3.1-.6-6.4-3.7-7.4m-51.9-3.1c-3-1.2-6.4.2-7.6 3.2l-11.7 28.8c-1.2 3 .2 6.4 3.2 7.6s6.4-.2 7.6-3.2l11.7-28.8c1.3-3-.2-6.4-3.2-7.6" class="s1"/></g></svg>