<svg width="240" height="240" viewBox="0 0 240 240" fill="none" xmlns="http://www.w3.org/2000/svg">
<rect width="240" height="240" fill="white"/>
<path fill-rule="evenodd" clip-rule="evenodd" d="M9.50745 133.416C11.5174 131.429 14.7762 131.429 16.7861 133.416L55.3846 171.582C57.3945 173.569 57.3945 176.791 55.3846 178.779L16.7861 216.943C14.7762 218.931 11.5174 218.931 9.50745 216.943C7.49752 214.956 7.49752 211.734 9.50745 209.748L44.4673 175.179L9.50745 140.612C7.49752 138.625 7.49752 135.403 9.50745 133.416ZM59.466 226.067C59.466 223.257 61.7701 220.979 64.6116 220.979H116.077C118.92 220.979 121.224 223.257 121.224 226.067C121.224 228.878 118.92 231.156 116.077 231.156H64.6116C61.7701 231.156 59.466 228.878 59.466 226.067Z" fill="#AEFFDE"/>
<path fill-rule="evenodd" clip-rule="evenodd" d="M151.319 46.6303C161.388 58.7966 169.198 75.5202 177.883 94.2185L183.06 91.8142L177.883 94.2185L178.052 94.5822C188.19 116.409 199.406 140.557 216.632 159.988C217.623 161.106 217.953 162.86 217.387 164.533C216.841 166.148 215.808 166.829 214.762 166.9L215.158 172.735L214.762 166.9C197.213 168.09 171.607 169.472 147.435 169.472C135.083 169.472 121.254 169.111 107.841 168.597L107.841 168.597C75.3767 167.355 50.7656 140.575 56.1479 109.74L50.6026 108.772L56.1479 109.74C57.8489 99.9949 60.0921 90.0218 63.0427 80.5196C63.779 78.1484 62.9379 75.5707 60.9448 74.0901C55.5084 70.0519 50.1852 65.6636 46.5363 61.6986C44.6976 59.7004 43.5118 58.0517 42.8991 56.8136C42.7428 56.4976 42.6465 56.2564 42.5874 56.0813C42.8282 55.8876 43.2725 55.5851 44.0529 55.2155C45.7736 54.4005 48.2961 53.6627 51.5161 53.0626C57.9123 51.8705 65.8627 51.4317 72.8046 51.3301C74.7039 51.3023 76.4715 50.3538 77.5447 48.7864C86.5354 35.6563 98.0641 27.6426 113.318 27.6425C129.891 27.6425 141.521 34.7913 151.319 46.6303ZM42.4956 55.7221C42.4954 55.7135 42.495 55.709 42.4948 55.709C42.4946 55.7089 42.4947 55.7132 42.4956 55.7221ZM160.331 39.1725C148.833 25.2797 134.12 15.9452 113.318 15.9453C94.1981 15.9453 79.984 25.7403 69.6588 39.6967C63.1509 39.8769 55.7549 40.3739 49.3731 41.5633C45.7061 42.2467 42.0691 43.212 39.0456 44.6442C36.1854 45.9989 32.7818 48.2892 31.3868 52.2253C30.0891 55.8868 31.143 59.4306 32.4152 62.0014C33.7297 64.6579 35.7437 67.2448 37.929 69.6194C41.4809 73.4792 46.0907 77.4208 50.6922 80.9929C48.1391 89.8517 46.1606 98.93 44.6249 107.729C37.8249 146.686 69.0625 178.819 107.393 180.286C120.887 180.803 134.878 181.169 147.435 181.169C171.989 181.169 197.893 179.768 215.553 178.571C222.267 178.116 226.739 173.393 228.468 168.281C230.178 163.227 229.553 156.93 225.385 152.229C209.391 134.188 198.807 111.5 188.492 89.2911L188.273 88.8206C179.849 70.6823 171.461 52.6218 160.331 39.1725Z" fill="#333333"/>
<path fill-rule="evenodd" clip-rule="evenodd" d="M126.111 82.0471C122.881 82.0471 120.263 84.6656 120.263 87.8957C120.263 90.2461 120.291 92.5289 120.342 94.7413C121.055 125.276 145.769 147.643 175.737 148.397L175.737 148.397C186.564 148.669 200.378 148.414 210.322 146.994C213.52 146.537 215.742 143.574 215.285 140.377C214.828 137.179 211.866 134.957 208.668 135.414C199.689 136.696 186.639 136.97 176.031 136.703C151.727 136.092 132.59 118.206 132.036 94.468L132.036 94.4675C131.987 92.3453 131.96 90.1537 131.96 87.8957C131.96 84.6656 129.341 82.0471 126.111 82.0471Z" fill="#333333"/>
<path fill-rule="evenodd" clip-rule="evenodd" d="M100.524 58.5916C97.2938 58.5916 94.6753 61.2101 94.6753 64.4402V68.7049C94.6753 71.935 97.2938 74.5535 100.524 74.5535C103.754 74.5535 106.373 71.935 106.373 68.7049V64.4402C106.373 61.2101 103.754 58.5916 100.524 58.5916Z" fill="#333333"/>
<path fill-rule="evenodd" clip-rule="evenodd" d="M145.02 169.772C141.955 168.751 138.643 170.407 137.622 173.471L129.093 199.059C128.071 202.123 129.727 205.436 132.792 206.457C135.856 207.478 139.168 205.822 140.19 202.758L148.719 177.17C149.74 174.106 148.084 170.794 145.02 169.772Z" fill="#333333"/>
<path fill-rule="evenodd" clip-rule="evenodd" d="M93.1276 166.718C90.1362 165.5 86.7233 166.937 85.5048 169.928L73.7843 198.702C72.5658 201.693 74.003 205.106 76.9945 206.325C79.9859 207.543 83.3988 206.106 84.6173 203.114L96.3378 174.341C97.5563 171.349 96.1191 167.937 93.1276 166.718Z" fill="#333333"/>
</svg>
