<svg xmlns="http://www.w3.org/2000/svg" width="225" height="223" fill="none"><path fill="#AEFFDE" fill-rule="evenodd" d="M1.507 124.416a5.19 5.19 0 0 1 7.28 0l38.598 38.166a5.05 5.05 0 0 1 0 7.197L8.786 207.943a5.187 5.187 0 0 1-7.279 0 5.046 5.046 0 0 1 0-7.195l34.96-34.569-34.96-34.567a5.05 5.05 0 0 1 0-7.196m49.959 92.651c0-2.81 2.304-5.088 5.146-5.088h51.465c2.843 0 5.147 2.278 5.147 5.088s-2.304 5.089-5.147 5.089H56.612c-2.842 0-5.146-2.278-5.146-5.089" clip-rule="evenodd"/><path fill="#333" fill-rule="evenodd" d="M143.319 37.63c10.069 12.167 17.879 28.89 26.564 47.589l5.177-2.405-5.177 2.405.169.363c10.138 21.827 21.354 45.975 38.58 65.406.991 1.118 1.321 2.872.755 4.545-.546 1.615-1.579 2.296-2.625 2.367l.396 5.835-.396-5.835c-17.549 1.19-43.155 2.572-67.327 2.572-12.352 0-26.181-.361-39.594-.875-32.464-1.242-57.075-28.022-51.693-58.857l-5.545-.968 5.545.968c1.7-9.745 3.944-19.718 6.895-29.22a5.85 5.85 0 0 0-2.098-6.43c-5.437-4.038-10.76-8.426-14.409-12.391-1.838-1.999-3.024-3.647-3.637-4.885a6 6 0 0 1-.312-.733c.241-.193.685-.496 1.466-.866 1.72-.815 4.243-1.552 7.463-2.152 6.396-1.193 14.347-1.631 21.289-1.733a5.85 5.85 0 0 0 4.74-2.544c8.99-13.13 20.52-21.143 35.773-21.144 16.573 0 28.203 7.15 38.001 18.988m9.012-7.458C140.833 16.28 126.12 6.945 105.318 6.945c-19.12 0-33.334 9.795-43.66 23.752-6.507.18-13.903.677-20.285 1.866-3.667.684-7.304 1.649-10.327 3.081-2.86 1.355-6.264 3.645-7.66 7.581-1.297 3.662-.243 7.206 1.03 9.776 1.314 2.657 3.328 5.244 5.513 7.618 3.552 3.86 8.162 7.802 12.763 11.374-2.553 8.859-4.531 17.937-6.067 26.736-6.8 38.957 24.438 71.09 62.768 72.557 13.494.517 27.485.883 40.042.883 24.554 0 50.458-1.401 68.118-2.598 6.714-.455 11.186-5.178 12.915-10.29 1.71-5.054 1.085-11.351-3.083-16.052-15.994-18.041-26.578-40.729-36.893-62.938l-.219-.47c-8.424-18.139-16.812-36.2-27.942-49.648" clip-rule="evenodd"/><path fill="#333" fill-rule="evenodd" d="M118.111 73.047a5.85 5.85 0 0 0-5.848 5.849q.001 3.526.079 6.845c.713 30.535 25.427 52.902 55.395 53.656 10.827.272 24.641.017 34.585-1.404a5.848 5.848 0 1 0-1.654-11.579c-8.979 1.282-22.029 1.556-32.637 1.289-24.304-.611-43.441-18.497-43.995-42.235a285 285 0 0 1-.076-6.572 5.85 5.85 0 0 0-5.849-5.849M92.524 49.592a5.85 5.85 0 0 0-5.849 5.848v4.265a5.849 5.849 0 1 0 11.698 0V55.44a5.85 5.85 0 0 0-5.85-5.848m44.497 111.18a5.85 5.85 0 0 0-7.398 3.699l-8.529 25.588a5.85 5.85 0 0 0 11.097 3.699l8.529-25.588a5.85 5.85 0 0 0-3.699-7.398m-51.892-3.054a5.85 5.85 0 0 0-7.623 3.21l-11.72 28.774a5.85 5.85 0 0 0 10.832 4.412l11.72-28.773a5.85 5.85 0 0 0-3.21-7.623" clip-rule="evenodd"/></svg>