
<svg width="100%" height="auto" viewBox="0 0 534 219" preserveAspectRatio="xMidYMid meet" fill="none" xmlns="http://www.w3.org/2000/svg">
    <path d="M388.968 85.8734C389.621 86.1751 390.124 86.6026 390.476 87.1557C390.828 87.6586 391.004 88.2368 391.004 88.8906C391.004 89.3431 390.879 89.8208 390.627 90.3237L374.636 124.04C373.882 125.7 372.725 126.529 371.167 126.529C370.312 126.529 369.608 126.353 369.055 126.001C368.501 125.599 367.999 124.945 367.546 124.04L351.555 90.3237C351.354 89.9214 351.253 89.4688 351.253 88.966C351.253 87.6083 351.957 86.5774 353.365 85.8734C353.818 85.622 354.346 85.4963 354.949 85.4963C355.553 85.4963 356.131 85.6723 356.684 86.0243C357.237 86.326 357.665 86.7786 357.967 87.382L371.091 115.668L384.065 87.382C384.367 86.7786 384.794 86.326 385.347 86.0243C385.951 85.6723 386.579 85.4963 387.233 85.4963C387.887 85.4963 388.465 85.622 388.968 85.8734Z" fill="#333333"/>
    <path d="M348.873 105.334C348.873 106.289 348.546 107.094 347.892 107.748C347.238 108.351 346.409 108.653 345.403 108.653H316.74C317.293 112.173 318.877 115.014 321.492 117.176C324.157 119.339 327.401 120.42 331.222 120.42C332.731 120.42 334.29 120.143 335.899 119.59C337.558 119.037 338.916 118.358 339.972 117.553C340.676 117 341.506 116.724 342.461 116.724C343.417 116.724 344.171 116.975 344.724 117.478C345.629 118.232 346.082 119.087 346.082 120.043C346.082 120.948 345.68 121.702 344.875 122.305C343.165 123.663 341.028 124.769 338.464 125.624C335.949 126.479 333.536 126.907 331.222 126.907C327.099 126.907 323.403 126.027 320.134 124.267C316.866 122.456 314.301 119.967 312.441 116.799C310.63 113.631 309.725 110.036 309.725 106.013C309.725 101.99 310.58 98.3946 312.29 95.2266C314.05 92.0083 316.464 89.5191 319.531 87.7591C322.649 85.9488 326.169 85.0437 330.091 85.0437C333.963 85.0437 337.307 85.8986 340.123 87.6083C342.939 89.318 345.101 91.7066 346.61 94.774C348.118 97.8414 348.873 101.361 348.873 105.334ZM330.091 91.5306C326.42 91.5306 323.428 92.5363 321.115 94.5477C318.852 96.5591 317.419 99.2494 316.816 102.619H341.933C341.481 99.2494 340.224 96.5591 338.162 94.5477C336.1 92.5363 333.41 91.5306 330.091 91.5306Z" fill="#333333"/>
    <path d="M298.389 84.8929C301.054 84.8929 303.141 85.2951 304.65 86.0997C306.158 86.9043 306.913 87.91 306.913 89.1169C306.913 89.4689 306.888 89.7203 306.837 89.8711C306.385 91.4803 305.379 92.2849 303.82 92.2849C303.569 92.2849 303.192 92.2346 302.689 92.134C300.677 91.782 299.043 91.606 297.786 91.606C294.165 91.606 291.249 92.4357 289.036 94.0951C286.824 95.7546 285.717 97.9923 285.717 100.808V122.833C285.717 124.04 285.39 124.971 284.737 125.624C284.133 126.278 283.203 126.605 281.946 126.605C280.739 126.605 279.809 126.303 279.155 125.7C278.501 125.046 278.174 124.091 278.174 122.833V89.1169C278.174 87.91 278.501 86.9797 279.155 86.326C279.809 85.6723 280.739 85.3454 281.946 85.3454C284.46 85.3454 285.717 86.6026 285.717 89.1169V90.55C287.226 88.79 289.086 87.4071 291.299 86.4014C293.512 85.3957 295.875 84.8929 298.389 84.8929Z" fill="#333333"/>
    <path d="M245.981 126.907C241.958 126.907 238.363 126.027 235.195 124.267C232.027 122.456 229.563 119.967 227.803 116.799C226.043 113.631 225.163 110.036 225.163 106.013C225.163 101.94 226.043 98.3191 227.803 95.1511C229.563 91.9831 232.027 89.5191 235.195 87.7591C238.363 85.9488 241.958 85.0437 245.981 85.0437C249.954 85.0437 253.499 85.9488 256.617 87.7591C259.785 89.5191 262.249 91.9831 264.009 95.1511C265.819 98.3191 266.724 101.94 266.724 106.013C266.724 110.036 265.844 113.631 264.084 116.799C262.324 119.967 259.86 122.456 256.692 124.267C253.574 126.027 250.004 126.907 245.981 126.907ZM245.981 120.118C248.546 120.118 250.834 119.515 252.845 118.308C254.907 117.101 256.491 115.441 257.597 113.329C258.754 111.167 259.332 108.728 259.332 106.013C259.332 103.297 258.754 100.859 257.597 98.6963C256.491 96.534 254.907 94.8494 252.845 93.6426C250.834 92.4357 248.546 91.8323 245.981 91.8323C243.417 91.8323 241.103 92.4357 239.042 93.6426C237.03 94.8494 235.446 96.534 234.29 98.6963C233.133 100.859 232.555 103.297 232.555 106.013C232.555 108.728 233.133 111.167 234.29 113.329C235.446 115.441 237.03 117.101 239.042 118.308C241.103 119.515 243.417 120.118 245.981 120.118Z" fill="#333333"/>
    <path d="M200.68 126.907C196.707 126.907 193.137 126.001 189.969 124.191C186.801 122.381 184.312 119.892 182.501 116.724C180.741 113.505 179.861 109.935 179.861 106.013C179.861 101.99 180.716 98.3946 182.426 95.2266C184.186 92.0083 186.625 89.5191 189.743 87.7591C192.86 85.9488 196.38 85.0437 200.303 85.0437C206.236 85.0437 211.164 87.3066 215.087 91.8323C215.589 92.3854 215.841 93.0391 215.841 93.7934C215.841 94.8997 215.288 95.83 214.181 96.5843C213.679 96.9363 213.1 97.1123 212.447 97.1123C211.29 97.1123 210.309 96.6597 209.505 95.7546C208.248 94.3968 206.865 93.4163 205.356 92.8128C203.898 92.1591 202.213 91.8323 200.303 91.8323C196.431 91.8323 193.288 93.1397 190.874 95.7546C188.46 98.3191 187.253 101.739 187.253 106.013C187.253 108.728 187.807 111.167 188.913 113.329C190.069 115.441 191.653 117.101 193.665 118.308C195.727 119.515 198.065 120.118 200.68 120.118C204.099 120.118 206.865 119.238 208.977 117.478C209.932 116.774 210.863 116.422 211.768 116.422C212.472 116.422 213.125 116.648 213.729 117.101C214.684 117.905 215.162 118.811 215.162 119.816C215.162 120.571 214.86 121.249 214.257 121.853C210.636 125.222 206.111 126.907 200.68 126.907Z" fill="#333333"/>
    <path fill-rule="evenodd" clip-rule="evenodd" d="M143.151 79.9913C144.49 78.6696 146.661 78.6696 148 79.9913L173.714 105.376C175.053 106.698 175.053 108.841 173.714 110.163L148 135.547C146.661 136.869 144.49 136.869 143.151 135.547C141.812 134.225 141.812 132.082 143.151 130.761L166.441 107.769L143.151 84.7779C141.812 83.4561 141.812 81.3131 143.151 79.9913ZM176.433 141.615C176.433 139.746 177.968 138.231 179.861 138.231H214.147C216.041 138.231 217.576 139.746 217.576 141.615C217.576 143.485 216.041 145 214.147 145H179.861C177.968 145 176.433 143.485 176.433 141.615Z" fill="#AEFFDE"/>
    <path d="M69.785 145.067H1V213.852H69.785V145.067Z" fill="#AEFFDE"/>
    <path d="M69.785 180.578C85.3677 180.578 98 167.946 98 152.363C98 136.78 85.3677 124.148 69.785 124.148C54.2023 124.148 41.57 136.78 41.57 152.363C41.57 167.946 54.2023 180.578 69.785 180.578Z" stroke="#333333" stroke-width="6" stroke-linecap="round" stroke-linejoin="round"/>
    <g clip-path="url(#clip0_11_174)">
        <path d="M533 0H484.5L436 48.5V97H484.5L533 48.5V0Z" fill="#E8FFF6"/>
        <path d="M533 0H484.5V48.5H533V0Z" fill="#AEFFDE"/>
    </g>
    <g clip-path="url(#clip1_11_174)">
        <path d="M2.764 5.298C4.227 5.298 5.413 4.112 5.413 2.649C5.413 1.186 4.227 0 2.764 0C1.301 0 0.115 1.186 0.115 2.649C0.115 4.112 1.301 5.298 2.764 5.298Z" fill="#333333"/>
        <path d="M16.26 5.298C17.723 5.298 18.909 4.112 18.909 2.649C18.909 1.186 17.723 0 16.26 0C14.797 0 13.611 1.186 13.611 2.649C13.611 4.112 14.797 5.298 16.26 5.298Z" fill="#333333"/>
        <path d="M29.756 5.298C31.219 5.298 32.405 4.112 32.405 2.649C32.405 1.186 31.219 0 29.756 0C28.293 0 27.107 1.186 27.107 2.649C27.107 4.112 28.293 5.298 29.756 5.298Z" fill="#333333"/>
        <path d="M43.252 5.298C44.715 5.298 45.901 4.112 45.901 2.649C45.901 1.186 44.715 0 43.252 0C41.789 0 40.603 1.186 40.603 2.649C40.603 4.112 41.789 5.298 43.252 5.298Z" fill="#333333"/>
        <path d="M56.748 5.298C58.211 5.298 59.397 4.112 59.397 2.649C59.397 1.186 58.211 0 56.748 0C55.285 0 54.099 1.186 54.099 2.649C54.099 4.112 55.285 5.298 56.748 5.298Z" fill="#333333"/>
        <path d="M70.244 5.298C71.707 5.298 72.893 4.112 72.893 2.649C72.893 1.186 71.707 0 70.244 0C68.781 0 67.595 1.186 67.595 2.649C67.595 4.112 68.781 5.298 70.244 5.298Z" fill="#333333"/>
        <path d="M83.74 5.298C85.203 5.298 86.389 4.112 86.389 2.649C86.389 1.186 85.203 0 83.74 0C82.277 0 81.091 1.186 81.091 2.649C81.091 4.112 82.277 5.298 83.74 5.298Z" fill="#333333"/>
        <path d="M97.236 5.298C98.699 5.298 99.885 4.112 99.885 2.649C99.885 1.186 98.699 0 97.236 0C95.773 0 94.587 1.186 94.587 2.649C94.587 4.112 95.773 5.298 97.236 5.298Z" fill="#333333"/>
        <path d="M2.764 18.827C4.227 18.827 5.413 17.641 5.413 16.178C5.413 14.715 4.227 13.529 2.764 13.529C1.301 13.529 0.115 14.715 0.115 16.178C0.115 17.641 1.301 18.827 2.764 18.827Z" fill="#333333"/>
        <path d="M16.26 18.827C17.723 18.827 18.909 17.641 18.909 16.178C18.909 14.715 17.723 13.529 16.26 13.529C14.797 13.529 13.611 14.715 13.611 16.178C13.611 17.641 14.797 18.827 16.26 18.827Z" fill="#333333"/>
        <path d="M29.756 18.827C31.219 18.827 32.405 17.641 32.405 16.178C32.405 14.715 31.219 13.529 29.756 13.529C28.293 13.529 27.107 14.715 27.107 16.178C27.107 17.641 28.293 18.827 29.756 18.827Z" fill="#333333"/>
        <path d="M43.252 18.827C44.715 18.827 45.901 17.641 45.901 16.178C45.901 14.715 44.715 13.529 43.252 13.529C41.789 13.529 40.603 14.715 40.603 16.178C40.603 17.641 41.789 18.827 43.252 18.827Z" fill="#333333"/>
        <path d="M56.748 18.827C58.211 18.827 59.397 17.641 59.397 16.178C59.397 14.715 58.211 13.529 56.748 13.529C55.285 13.529 54.099 14.715 54.099 16.178C54.099 17.641 55.285 18.827 56.748 18.827Z" fill="#333333"/>
        <path d="M70.244 18.827C71.707 18.827 72.893 17.641 72.893 16.178C72.893 14.715 71.707 13.529 70.244 13.529C68.781 13.529 67.595 14.715 67.595 16.178C67.595 17.641 68.781 18.827 70.244 18.827Z" fill="#333333"/>
        <path d="M83.74 18.827C85.203 18.827 86.389 17.641 86.389 16.178C86.389 14.715 85.203 13.529 83.74 13.529C82.277 13.529 81.091 14.715 81.091 16.178C81.091 17.641 82.277 18.827 83.74 18.827Z" fill="#333333"/>
        <path d="M97.236 18.827C98.699 18.827 99.885 17.641 99.885 16.178C99.885 14.715 98.699 13.529 97.236 13.529C95.773 13.529 94.587 14.715 94.587 16.178C94.587 17.641 95.773 18.827 97.236 18.827Z" fill="#333333"/>
        <path d="M2.764 32.356C4.227 32.356 5.413 31.17 5.413 29.707C5.413 28.244 4.227 27.058 2.764 27.058C1.301 27.058 0.115 28.244 0.115 29.707C0.115 31.17 1.301 32.356 2.764 32.356Z" fill="#333333"/>
        <path d="M16.26 32.356C17.723 32.356 18.909 31.17 18.909 29.707C18.909 28.244 17.723 27.058 16.26 27.058C14.797 27.058 13.611 28.244 13.611 29.707C13.611 31.17 14.797 32.356 16.26 32.356Z" fill="#333333"/>
        <path d="M29.756 32.356C31.219 32.356 32.405 31.17 32.405 29.707C32.405 28.244 31.219 27.058 29.756 27.058C28.293 27.058 27.107 28.244 27.107 29.707C27.107 31.17 28.293 32.356 29.756 32.356Z" fill="#333333"/>
        <path d="M43.252 32.356C44.715 32.356 45.901 31.17 45.901 29.707C45.901 28.244 44.715 27.058 43.252 27.058C41.789 27.058 40.603 28.244 40.603 29.707C40.603 31.17 41.789 32.356 43.252 32.356Z" fill="#333333"/>
        <path d="M56.748 32.356C58.211 32.356 59.397 31.17 59.397 29.707C59.397 28.244 58.211 27.058 56.748 27.058C55.285 27.058 54.099 28.244 54.099 29.707C54.099 31.17 55.285 32.356 56.748 32.356Z" fill="#333333"/>
        <path d="M70.244 32.356C71.707 32.356 72.893 31.17 72.893 29.707C72.893 28.244 71.707 27.058 70.244 27.058C68.781 27.058 67.595 28.244 67.595 29.707C67.595 31.17 68.781 32.356 70.244 32.356Z" fill="#333333"/>
        <path d="M83.74 32.356C85.203 32.356 86.389 31.17 86.389 29.707C86.389 28.244 85.203 27.058 83.74 27.058C82.277 27.058 81.091 28.244 81.091 29.707C81.091 31.17 82.277 32.356 83.74 32.356Z" fill="#333333"/>
        <path d="M97.236 32.356C98.699 32.356 99.885 31.17 99.885 29.707C99.885 28.244 98.699 27.058 97.236 27.058C95.773 27.058 94.587 28.244 94.587 29.707C94.587 31.17 95.773 32.356 97.236 32.356Z" fill="#333333"/>
        <path d="M2.764 45.885C4.227 45.885 5.413 44.699 5.413 43.236C5.413 41.773 4.227 40.587 2.764 40.587C1.301 40.587 0.115 41.773 0.115 43.236C0.115 44.699 1.301 45.885 2.764 45.885Z" fill="#333333"/>
        <path d="M16.26 45.885C17.723 45.885 18.909 44.699 18.909 43.236C18.909 41.773 17.723 40.587 16.26 40.587C14.797 40.587 13.611 41.773 13.611 43.236C13.611 44.699 14.797 45.885 16.26 45.885Z" fill="#333333"/>
        <path d="M29.756 45.885C31.219 45.885 32.405 44.699 32.405 43.236C32.405 41.773 31.219 40.587 29.756 40.587C28.293 40.587 27.107 41.773 27.107 43.236C27.107 44.699 28.293 45.885 29.756 45.885Z" fill="#333333"/>
        <path d="M2.764 59.413C4.227 59.413 5.413 58.227 5.413 56.764C5.413 55.301 4.227 54.115 2.764 54.115C1.301 54.115 0.115 55.301 0.115 56.764C0.115 58.227 1.301 59.413 2.764 59.413Z" fill="#333333"/>
        <path d="M16.26 59.413C17.723 59.413 18.909 58.227 18.909 56.764C18.909 55.301 17.723 54.115 16.26 54.115C14.797 54.115 13.611 55.301 13.611 56.764C13.611 58.227 14.797 59.413 16.26 59.413Z" fill="#333333"/>
        <path d="M29.756 59.413C31.219 59.413 32.405 58.227 32.405 56.764C32.405 55.301 31.219 54.115 29.756 54.115C28.293 54.115 27.107 55.301 27.107 56.764C27.107 58.227 28.293 59.413 29.756 59.413Z" fill="#333333"/>
        <path d="M2.764 72.942C4.227 72.942 5.413 71.756 5.413 70.293C5.413 68.83 4.227 67.644 2.764 67.644C1.301 67.644 0.115 68.83 0.115 70.293C0.115 71.756 1.301 72.942 2.764 72.942Z" fill="#333333"/>
        <path d="M16.26 72.942C17.723 72.942 18.909 71.756 18.909 70.293C18.909 68.83 17.723 67.644 16.26 67.644C14.797 67.644 13.611 68.83 13.611 70.293C13.611 71.756 14.797 72.942 16.26 72.942Z" fill="#333333"/>
        <path d="M29.756 72.942C31.219 72.942 32.405 71.756 32.405 70.293C32.405 68.83 31.219 67.644 29.756 67.644C28.293 67.644 27.107 68.83 27.107 70.293C27.107 71.756 28.293 72.942 29.756 72.942Z" fill="#333333"/>
        <path d="M2.764 86.471C4.227 86.471 5.413 85.285 5.413 83.822C5.413 82.359 4.227 81.173 2.764 81.173C1.301 81.173 0.115 82.359 0.115 83.822C0.115 85.285 1.301 86.471 2.764 86.471Z" fill="#333333"/>
        <path d="M16.26 86.471C17.723 86.471 18.909 85.285 18.909 83.822C18.909 82.359 17.723 81.173 16.26 81.173C14.797 81.173 13.611 82.359 13.611 83.822C13.611 85.285 14.797 86.471 16.26 86.471Z" fill="#333333"/>
        <path d="M29.756 86.471C31.219 86.471 32.405 85.285 32.405 83.822C32.405 82.359 31.219 81.173 29.756 81.173C28.293 81.173 27.107 82.359 27.107 83.822C27.107 85.285 28.293 86.471 29.756 86.471Z" fill="#333333"/>
        <path d="M2.764 100C4.227 100 5.413 98.814 5.413 97.351C5.413 95.888 4.227 94.702 2.764 94.702C1.301 94.702 0.115 95.888 0.115 97.351C0.115 98.814 1.301 100 2.764 100Z" fill="#333333"/>
        <path d="M16.26 100C17.723 100 18.909 98.814 18.909 97.351C18.909 95.888 17.723 94.702 16.26 94.702C14.797 94.702 13.611 95.888 13.611 97.351C13.611 98.814 14.797 100 16.26 100Z" fill="#333333"/>
        <path d="M29.756 100C31.219 100 32.405 98.814 32.405 97.351C32.405 95.888 31.219 94.702 29.756 94.702C28.293 94.702 27.107 95.888 27.107 97.351C27.107 98.814 28.293 100 29.756 100Z" fill="#333333"/>
    </g>
    <g clip-path="url(#clip2_11_174)">
        <path d="M514 114H434V194H514V114Z" fill="#AEFFDE"/>
        <path d="M456.303 138.238C457.473 138.238 458.422 137.289 458.422 136.119C458.422 134.949 457.473 134 456.303 134C455.133 134 454.184 134.949 454.184 136.119C454.184 137.289 455.133 138.238 456.303 138.238Z" fill="#333333"/>
        <path d="M467.1 138.238C468.27 138.238 469.219 137.289 469.219 136.119C469.219 134.949 468.27 134 467.1 134C465.93 134 464.981 134.949 464.981 136.119C464.981 137.289 465.93 138.238 467.1 138.238Z" fill="#333333"/>
        <path d="M477.897 138.238C479.067 138.238 480.016 137.289 480.016 136.119C480.016 134.949 479.067 134 477.897 134C476.727 134 475.778 134.949 475.778 136.119C475.778 137.289 476.727 138.238 477.897 138.238Z" fill="#333333"/>
        <path d="M488.693 138.238C489.863 138.238 490.812 137.289 490.812 136.119C490.812 134.949 489.863 134 488.693 134C487.523 134 486.574 134.949 486.574 136.119C486.574 137.289 487.523 138.238 488.693 138.238Z" fill="#333333"/>
        <path d="M499.49 138.238C500.66 138.238 501.609 137.289 501.609 136.119C501.609 134.949 500.66 134 499.49 134C498.32 134 497.371 134.949 497.371 136.119C497.371 137.289 498.32 138.238 499.49 138.238Z" fill="#333333"/>
        <path d="M510.287 138.238C511.457 138.238 512.406 137.289 512.406 136.119C512.406 134.949 511.457 134 510.287 134C509.117 134 508.168 134.949 508.168 136.119C508.168 137.289 509.117 138.238 510.287 138.238Z" fill="#333333"/>
        <path d="M521.084 138.238C522.254 138.238 523.203 137.289 523.203 136.119C523.203 134.949 522.254 134 521.084 134C519.914 134 518.965 134.949 518.965 136.119C518.965 137.289 519.914 138.238 521.084 138.238Z" fill="#333333"/>
        <path d="M531.881 138.238C533.051 138.238 534 137.289 534 136.119C534 134.949 533.051 134 531.881 134C530.711 134 529.762 134.949 529.762 136.119C529.762 137.289 530.711 138.238 531.881 138.238Z" fill="#333333"/>
        <path d="M456.303 149.061C457.473 149.061 458.422 148.112 458.422 146.942C458.422 145.772 457.473 144.823 456.303 144.823C455.133 144.823 454.184 145.772 454.184 146.942C454.184 148.112 455.133 149.061 456.303 149.061Z" fill="#333333"/>
        <path d="M467.1 149.061C468.27 149.061 469.219 148.112 469.219 146.942C469.219 145.772 468.27 144.823 467.1 144.823C465.93 144.823 464.981 145.772 464.981 146.942C464.981 148.112 465.93 149.061 467.1 149.061Z" fill="#333333"/>
        <path d="M477.897 149.061C479.067 149.061 480.016 148.112 480.016 146.942C480.016 145.772 479.067 144.823 477.897 144.823C476.727 144.823 475.778 145.772 475.778 146.942C475.778 148.112 476.727 149.061 477.897 149.061Z" fill="#333333"/>
        <path d="M488.693 149.061C489.863 149.061 490.812 148.112 490.812 146.942C490.812 145.772 489.863 144.823 488.693 144.823C487.523 144.823 486.574 145.772 486.574 146.942C486.574 148.112 487.523 149.061 488.693 149.061Z" fill="#333333"/>
        <path d="M499.49 149.061C500.66 149.061 501.609 148.112 501.609 146.942C501.609 145.772 500.66 144.823 499.49 144.823C498.32 144.823 497.371 145.772 497.371 146.942C497.371 148.112 498.32 149.061 499.49 149.061Z" fill="#333333"/>
        <path d="M510.287 149.061C511.457 149.061 512.406 148.112 512.406 146.942C512.406 145.772 511.457 144.823 510.287 144.823C509.117 144.823 508.168 145.772 508.168 146.942C508.168 148.112 509.117 149.061 510.287 149.061Z" fill="#333333"/>
        <path d="M521.084 149.061C522.254 149.061 523.203 148.112 523.203 146.942C523.203 145.772 522.254 144.823 521.084 144.823C519.914 144.823 518.965 145.772 518.965 146.942C518.965 148.112 519.914 149.061 521.084 149.061Z" fill="#333333"/>
        <path d="M531.881 149.061C533.051 149.061 534 148.112 534 146.942C534 145.772 533.051 144.823 531.881 144.823C530.711 144.823 529.762 145.772 529.762 146.942C529.762 148.112 530.711 149.061 531.881 149.061Z" fill="#333333"/>
        <path d="M456.303 159.884C457.473 159.884 458.422 158.935 458.422 157.765C458.422 156.595 457.473 155.646 456.303 155.646C455.133 155.646 454.184 156.595 454.184 157.765C454.184 158.935 455.133 159.884 456.303 159.884Z" fill="#333333"/>
        <path d="M467.1 159.884C468.27 159.884 469.219 158.935 469.219 157.765C469.219 156.595 468.27 155.646 467.1 155.646C465.93 155.646 464.981 156.595 464.981 157.765C464.981 158.935 465.93 159.884 467.1 159.884Z" fill="#333333"/>
        <path d="M477.897 159.884C479.067 159.884 480.016 158.935 480.016 157.765C480.016 156.595 479.067 155.646 477.897 155.646C476.727 155.646 475.778 156.595 475.778 157.765C475.778 158.935 476.727 159.884 477.897 159.884Z" fill="#333333"/>
        <path d="M488.693 159.884C489.863 159.884 490.812 158.935 490.812 157.765C490.812 156.595 489.863 155.646 488.693 155.646C487.523 155.646 486.574 156.595 486.574 157.765C486.574 158.935 487.523 159.884 488.693 159.884Z" fill="#333333"/>
        <path d="M499.49 159.884C500.66 159.884 501.609 158.935 501.609 157.765C501.609 156.595 500.66 155.646 499.49 155.646C498.32 155.646 497.371 156.595 497.371 157.765C497.371 158.935 498.32 159.884 499.49 159.884Z" fill="#333333"/>
        <path d="M510.287 159.884C511.457 159.884 512.406 158.935 512.406 157.765C512.406 156.595 511.457 155.646 510.287 155.646C509.117 155.646 508.168 156.595 508.168 157.765C508.168 158.935 509.117 159.884 510.287 159.884Z" fill="#333333"/>
        <path d="M521.084 159.884C522.254 159.884 523.203 158.935 523.203 157.765C523.203 156.595 522.254 155.646 521.084 155.646C519.914 155.646 518.965 156.595 518.965 157.765C518.965 158.935 519.914 159.884 521.084 159.884Z" fill="#333333"/>
        <path d="M531.881 159.884C533.051 159.884 534 158.935 534 157.765C534 156.595 533.051 155.646 531.881 155.646C530.711 155.646 529.762 156.595 529.762 157.765C529.762 158.935 530.711 159.884 531.881 159.884Z" fill="#333333"/>
        <path d="M456.303 170.707C457.473 170.707 458.422 169.758 458.422 168.588C458.422 167.418 457.473 166.469 456.303 166.469C455.133 166.469 454.184 167.418 454.184 168.588C454.184 169.758 455.133 170.707 456.303 170.707Z" fill="#333333"/>
        <path d="M467.1 170.707C468.27 170.707 469.219 169.758 469.219 168.588C469.219 167.418 468.27 166.469 467.1 166.469C465.93 166.469 464.981 167.418 464.981 168.588C464.981 169.758 465.93 170.707 467.1 170.707Z" fill="#333333"/>
        <path d="M477.897 170.707C479.067 170.707 480.016 169.758 480.016 168.588C480.016 167.418 479.067 166.469 477.897 166.469C476.727 166.469 475.778 167.418 475.778 168.588C475.778 169.758 476.727 170.707 477.897 170.707Z" fill="#333333"/>
        <path d="M488.693 170.707C489.863 170.707 490.812 169.758 490.812 168.588C490.812 167.418 489.863 166.469 488.693 166.469C487.523 166.469 486.574 167.418 486.574 168.588C486.574 169.758 487.523 170.707 488.693 170.707Z" fill="#333333"/>
        <path d="M499.49 170.707C500.66 170.707 501.609 169.758 501.609 168.588C501.609 167.418 500.66 166.469 499.49 166.469C498.32 166.469 497.371 167.418 497.371 168.588C497.371 169.758 498.32 170.707 499.49 170.707Z" fill="#333333"/>
        <path d="M510.287 170.707C511.457 170.707 512.406 169.758 512.406 168.588C512.406 167.418 511.457 166.469 510.287 166.469C509.117 166.469 508.168 167.418 508.168 168.588C508.168 169.758 509.117 170.707 510.287 170.707Z" fill="#333333"/>
        <path d="M521.084 170.707C522.254 170.707 523.203 169.758 523.203 168.588C523.203 167.418 522.254 166.469 521.084 166.469C519.914 166.469 518.965 167.418 518.965 168.588C518.965 169.758 519.914 170.707 521.084 170.707Z" fill="#333333"/>
        <path d="M531.881 170.707C533.051 170.707 534 169.758 534 168.588C534 167.418 533.051 166.469 531.881 166.469C530.711 166.469 529.762 167.418 529.762 168.588C529.762 169.758 530.711 170.707 531.881 170.707Z" fill="#333333"/>
        <path d="M456.303 181.531C457.473 181.531 458.422 180.582 458.422 179.412C458.422 178.242 457.473 177.293 456.303 177.293C455.133 177.293 454.184 178.242 454.184 179.412C454.184 180.582 455.133 181.531 456.303 181.531Z" fill="#333333"/>
        <path d="M467.1 181.531C468.27 181.531 469.219 180.582 469.219 179.412C469.219 178.242 468.27 177.293 467.1 177.293C465.93 177.293 464.981 178.242 464.981 179.412C464.981 180.582 465.93 181.531 467.1 181.531Z" fill="#333333"/>
        <path d="M477.897 181.531C479.067 181.531 480.016 180.582 480.016 179.412C480.016 178.242 479.067 177.293 477.897 177.293C476.727 177.293 475.778 178.242 475.778 179.412C475.778 180.582 476.727 181.531 477.897 181.531Z" fill="#333333"/>
        <path d="M488.693 181.531C489.863 181.531 490.812 180.582 490.812 179.412C490.812 178.242 489.863 177.293 488.693 177.293C487.523 177.293 486.574 178.242 486.574 179.412C486.574 180.582 487.523 181.531 488.693 181.531Z" fill="#333333"/>
        <path d="M499.49 181.531C500.66 181.531 501.609 180.582 501.609 179.412C501.609 178.242 500.66 177.293 499.49 177.293C498.32 177.293 497.371 178.242 497.371 179.412C497.371 180.582 498.32 181.531 499.49 181.531Z" fill="#333333"/>
        <path d="M510.287 181.531C511.457 181.531 512.406 180.582 512.406 179.412C512.406 178.242 511.457 177.293 510.287 177.293C509.117 177.293 508.168 178.242 508.168 179.412C508.168 180.582 509.117 181.531 510.287 181.531Z" fill="#333333"/>
        <path d="M521.084 181.531C522.254 181.531 523.203 180.582 523.203 179.412C523.203 178.242 522.254 177.293 521.084 177.293C519.914 177.293 518.965 178.242 518.965 179.412C518.965 180.582 519.914 181.531 521.084 181.531Z" fill="#333333"/>
        <path d="M531.881 181.531C533.051 181.531 534 180.582 534 179.412C534 178.242 533.051 177.293 531.881 177.293C530.711 177.293 529.762 178.242 529.762 179.412C529.762 180.582 530.711 181.531 531.881 181.531Z" fill="#333333"/>
        <path d="M456.303 192.354C457.473 192.354 458.422 191.405 458.422 190.235C458.422 189.065 457.473 188.116 456.303 188.116C455.133 188.116 454.184 189.065 454.184 190.235C454.184 191.405 455.133 192.354 456.303 192.354Z" fill="#333333"/>
        <path d="M467.1 192.354C468.27 192.354 469.219 191.405 469.219 190.235C469.219 189.065 468.27 188.116 467.1 188.116C465.93 188.116 464.981 189.065 464.981 190.235C464.981 191.405 465.93 192.354 467.1 192.354Z" fill="#333333"/>
        <path d="M477.897 192.354C479.067 192.354 480.016 191.405 480.016 190.235C480.016 189.065 479.067 188.116 477.897 188.116C476.727 188.116 475.778 189.065 475.778 190.235C475.778 191.405 476.727 192.354 477.897 192.354Z" fill="#333333"/>
        <path d="M488.693 192.354C489.863 192.354 490.812 191.405 490.812 190.235C490.812 189.065 489.863 188.116 488.693 188.116C487.523 188.116 486.574 189.065 486.574 190.235C486.574 191.405 487.523 192.354 488.693 192.354Z" fill="#333333"/>
        <path d="M499.49 192.354C500.66 192.354 501.609 191.405 501.609 190.235C501.609 189.065 500.66 188.116 499.49 188.116C498.32 188.116 497.371 189.065 497.371 190.235C497.371 191.405 498.32 192.354 499.49 192.354Z" fill="#333333"/>
        <path d="M510.287 192.354C511.457 192.354 512.406 191.405 512.406 190.235C512.406 189.065 511.457 188.116 510.287 188.116C509.117 188.116 508.168 189.065 508.168 190.235C508.168 191.405 509.117 192.354 510.287 192.354Z" fill="#333333"/>
        <path d="M521.084 192.354C522.254 192.354 523.203 191.405 523.203 190.235C523.203 189.065 522.254 188.116 521.084 188.116C519.914 188.116 518.965 189.065 518.965 190.235C518.965 191.405 519.914 192.354 521.084 192.354Z" fill="#333333"/>
        <path d="M531.881 192.354C533.051 192.354 534 191.405 534 190.235C534 189.065 533.051 188.116 531.881 188.116C530.711 188.116 529.762 189.065 529.762 190.235C529.762 191.405 530.711 192.354 531.881 192.354Z" fill="#333333"/>
        <path d="M456.303 203.177C457.473 203.177 458.422 202.228 458.422 201.058C458.422 199.888 457.473 198.939 456.303 198.939C455.133 198.939 454.184 199.888 454.184 201.058C454.184 202.228 455.133 203.177 456.303 203.177Z" fill="#333333"/>
        <path d="M467.1 203.177C468.27 203.177 469.219 202.228 469.219 201.058C469.219 199.888 468.27 198.939 467.1 198.939C465.93 198.939 464.981 199.888 464.981 201.058C464.981 202.228 465.93 203.177 467.1 203.177Z" fill="#333333"/>
        <path d="M477.897 203.177C479.067 203.177 480.016 202.228 480.016 201.058C480.016 199.888 479.067 198.939 477.897 198.939C476.727 198.939 475.778 199.888 475.778 201.058C475.778 202.228 476.727 203.177 477.897 203.177Z" fill="#333333"/>
        <path d="M488.693 203.177C489.863 203.177 490.812 202.228 490.812 201.058C490.812 199.888 489.863 198.939 488.693 198.939C487.523 198.939 486.574 199.888 486.574 201.058C486.574 202.228 487.523 203.177 488.693 203.177Z" fill="#333333"/>
        <path d="M499.49 203.177C500.66 203.177 501.609 202.228 501.609 201.058C501.609 199.888 500.66 198.939 499.49 198.939C498.32 198.939 497.371 199.888 497.371 201.058C497.371 202.228 498.32 203.177 499.49 203.177Z" fill="#333333"/>
        <path d="M510.287 203.177C511.457 203.177 512.406 202.228 512.406 201.058C512.406 199.888 511.457 198.939 510.287 198.939C509.117 198.939 508.168 199.888 508.168 201.058C508.168 202.228 509.117 203.177 510.287 203.177Z" fill="#333333"/>
        <path d="M521.084 203.177C522.254 203.177 523.203 202.228 523.203 201.058C523.203 199.888 522.254 198.939 521.084 198.939C519.914 198.939 518.965 199.888 518.965 201.058C518.965 202.228 519.914 203.177 521.084 203.177Z" fill="#333333"/>
        <path d="M531.881 203.177C533.051 203.177 534 202.228 534 201.058C534 199.888 533.051 198.939 531.881 198.939C530.711 198.939 529.762 199.888 529.762 201.058C529.762 202.228 530.711 203.177 531.881 203.177Z" fill="#333333"/>
        <path d="M456.303 214C457.473 214 458.422 213.051 458.422 211.881C458.422 210.711 457.473 209.762 456.303 209.762C455.133 209.762 454.184 210.711 454.184 211.881C454.184 213.051 455.133 214 456.303 214Z" fill="#333333"/>
        <path d="M467.1 214C468.27 214 469.219 213.051 469.219 211.881C469.219 210.711 468.27 209.762 467.1 209.762C465.93 209.762 464.981 210.711 464.981 211.881C464.981 213.051 465.93 214 467.1 214Z" fill="#333333"/>
        <path d="M477.897 214C479.067 214 480.016 213.051 480.016 211.881C480.016 210.711 479.067 209.762 477.897 209.762C476.727 209.762 475.778 210.711 475.778 211.881C475.778 213.051 476.727 214 477.897 214Z" fill="#333333"/>
        <path d="M488.693 214C489.863 214 490.812 213.051 490.812 211.881C490.812 210.711 489.863 209.762 488.693 209.762C487.523 209.762 486.574 210.711 486.574 211.881C486.574 213.051 487.523 214 488.693 214Z" fill="#333333"/>
        <path d="M499.49 214C500.66 214 501.609 213.051 501.609 211.881C501.609 210.711 500.66 209.762 499.49 209.762C498.32 209.762 497.371 210.711 497.371 211.881C497.371 213.051 498.32 214 499.49 214Z" fill="#333333"/>
        <path d="M510.287 214C511.457 214 512.406 213.051 512.406 211.881C512.406 210.711 511.457 209.762 510.287 209.762C509.117 209.762 508.168 210.711 508.168 211.881C508.168 213.051 509.117 214 510.287 214Z" fill="#333333"/>
        <path d="M521.084 214C522.254 214 523.203 213.051 523.203 211.881C523.203 210.711 522.254 209.762 521.084 209.762C519.914 209.762 518.965 210.711 518.965 211.881C518.965 213.051 519.914 214 521.084 214Z" fill="#333333"/>
        <path d="M531.881 214C533.051 214 534 213.051 534 211.881C534 210.711 533.051 209.762 531.881 209.762C530.711 209.762 529.762 210.711 529.762 211.881C529.762 213.051 530.711 214 531.881 214Z" fill="#333333"/>
    </g>
    <defs>
        <clipPath id="clip0_11_174">
            <rect width="97" height="97" fill="white" transform="translate(436)"/>
        </clipPath>
        <clipPath id="clip1_11_174">
            <rect width="100" height="100" fill="white"/>
        </clipPath>
        <clipPath id="clip2_11_174">
            <rect width="100" height="100" fill="white" transform="translate(434 114)"/>
        </clipPath>
    </defs>
</svg>
