<svg width="100%" height="auto" viewBox="0 0 534 219" preserveAspectRatio="xMidYMid meet" fill="none" xmlns="http://www.w3.org/2000/svg">
	<title>home-header-dark</title>
	<defs>
		<clipPath clipPathUnits="userSpaceOnUse" id="cp1">
			<path d="m436 0h97v97h-97z"/>
		</clipPath>
		<clipPath clipPathUnits="userSpaceOnUse" id="cp2">
			<path d="m534 114v100h-100v-100z"/>
		</clipPath>
	</defs>
	<style>
		.s0 { fill: #ffffff }
		.s1 { fill: #aeffde }
		.s2 { fill: none;stroke: #333333;stroke-linecap: round;stroke-linejoin: round;stroke-width: 6 }
		.s3 { fill: #e8fff6 }
		.s4 { fill: #fefdfd }
		.s5 { fill: #333333 }
	</style>
	<g id="Layer 1">
		<path class="s0" d="m389 85.9q0.9 0.4 1.5 1.3 0.5 0.7 0.5 1.7 0 0.7-0.4 1.4l-16 33.7q-1.1 2.5-3.4 2.5-1.3 0-2.1-0.5-0.9-0.6-1.6-2l-15.9-33.7q-0.3-0.6-0.3-1.3 0-2.1 2.1-3.1 0.6-0.4 1.5-0.4 1 0 1.8 0.5 0.8 0.5 1.3 1.4l13.1 28.3 13-28.3q0.4-0.9 1.2-1.4 1-0.5 1.9-0.5 1 0 1.8 0.4z"/>
		<path class="s0" d="m348.9 105.3q0 1.5-1 2.4-1 1-2.5 1h-28.7q0.9 5.2 4.8 8.5 4 3.2 9.7 3.2 2.3 0 4.7-0.8 2.5-0.8 4.1-2 1-0.9 2.5-0.9 1.4 0 2.2 0.8 1.4 1.1 1.4 2.5 0 1.4-1.2 2.3-2.6 2-6.4 3.3-3.8 1.3-7.3 1.3-6.2 0-11.1-2.6-4.9-2.7-7.7-7.5-2.7-4.8-2.7-10.8 0-6 2.6-10.8 2.6-4.8 7.2-7.4 4.7-2.8 10.6-2.8 5.8 0 10 2.6 4.2 2.6 6.5 7.2 2.3 4.6 2.3 10.5zm-18.8-13.8q-5.5 0-9 3-3.4 3.1-4.3 8.1h25.1q-0.6-5-3.7-8.1-3.1-3-8.1-3z"/>
		<path class="s0" d="m298.4 84.9q4 0 6.3 1.2 2.2 1.2 2.2 3 0 0.5-0.1 0.8-0.6 2.4-3 2.4-0.4 0-1.1-0.2-3-0.5-4.9-0.5-5.4 0-8.8 2.5-3.3 2.5-3.3 6.7v22q0 1.8-1 2.8-0.9 1-2.8 1-1.8 0-2.7-0.9-1-1-1-2.9v-33.7q0-1.8 1-2.8 0.9-1 2.7-1 3.8 0 3.8 3.8v1.4q2.3-2.6 5.6-4.1 3.3-1.5 7.1-1.5z"/>
		<path class="s0" d="m246 126.9q-6.1 0-10.8-2.6-4.8-2.7-7.4-7.5-2.6-4.8-2.6-10.8 0-6.1 2.6-10.8 2.6-4.8 7.4-7.4 4.7-2.8 10.8-2.8 5.9 0 10.6 2.8 4.8 2.6 7.4 7.4 2.7 4.7 2.7 10.8 0 6-2.6 10.8-2.7 4.8-7.4 7.5-4.7 2.6-10.7 2.6zm0-6.8q3.8 0 6.8-1.8 3.1-1.8 4.8-5 1.7-3.2 1.7-7.3 0-4.1-1.7-7.3-1.7-3.2-4.8-5.1-3-1.8-6.8-1.8-3.9 0-7 1.8-3 1.9-4.7 5.1-1.7 3.2-1.7 7.3 0 4.1 1.7 7.3 1.7 3.2 4.7 5 3.1 1.8 7 1.8z"/>
		<path class="s0" d="m200.7 126.9q-6 0-10.7-2.7-4.8-2.7-7.5-7.5-2.6-4.8-2.6-10.7 0-6 2.5-10.8 2.7-4.8 7.3-7.4 4.7-2.8 10.6-2.8 8.9 0 14.8 6.8 0.7 0.9 0.7 2 0 1.7-1.6 2.8-0.8 0.5-1.8 0.5-1.7 0-2.9-1.3-1.9-2.1-4.1-3-2.2-1-5.1-1-5.8 0-9.4 4-3.6 3.8-3.6 10.2 0 4.1 1.6 7.3 1.7 3.2 4.8 5 3.1 1.8 7 1.8 5.1 0 8.3-2.6 1.4-1.1 2.8-1.1 1 0 1.9 0.7 1.5 1.2 1.5 2.7 0 1.1-0.9 2.1-5.5 5-13.6 5z"/>
		<path fill-rule="evenodd" class="s1" d="m143.2 80c1.3-1.3 3.5-1.3 4.8 0l25.7 25.4c1.4 1.3 1.4 3.4 0 4.8l-25.7 25.3c-1.3 1.4-3.5 1.4-4.8 0-1.4-1.3-1.4-3.4 0-4.7l23.2-23-23.2-23c-1.4-1.3-1.4-3.5 0-4.8zm33.2 61.6c0-1.9 1.6-3.4 3.5-3.4h34.2c1.9 0 3.5 1.5 3.5 3.4 0 1.9-1.6 3.4-3.5 3.4h-34.2c-1.9 0-3.5-1.5-3.5-3.4z"/>
		<path class="s1" d="m69.8 145.1h-68.8v68.8h68.8z"/>
		<path class="s2" d="m69.8 180.6c15.6 0 28.2-12.7 28.2-28.2 0-15.6-12.6-28.3-28.2-28.3-15.6 0-28.2 12.7-28.2 28.3 0 15.5 12.6 28.2 28.2 28.2z"/>
		<g id="Clip-Path" clip-path="url(#cp1)">
			<g>
				<path class="s3" d="m533 0h-48.5l-48.5 48.5v48.5h48.5l48.5-48.5z"/>
				<path class="s1" d="m533 0h-48.5v48.5h48.5z"/>
			</g>
		</g>
		<g id="Clip-Path">
			<g>
				<path class="s4" d="m2.8 5.3c1.4 0 2.6-1.2 2.6-2.7 0-1.4-1.2-2.6-2.6-2.6-1.5 0-2.7 1.2-2.7 2.6 0 1.5 1.2 2.7 2.7 2.7z"/>
				<path class="s4" d="m16.3 5.3c1.4 0 2.6-1.2 2.6-2.7 0-1.4-1.2-2.6-2.6-2.6-1.5 0-2.7 1.2-2.7 2.6 0 1.5 1.2 2.7 2.7 2.7z"/>
				<path class="s4" d="m29.8 5.3c1.4 0 2.6-1.2 2.6-2.7 0-1.4-1.2-2.6-2.6-2.6-1.5 0-2.7 1.2-2.7 2.6 0 1.5 1.2 2.7 2.7 2.7z"/>
				<path class="s4" d="m43.3 5.3c1.4 0 2.6-1.2 2.6-2.7 0-1.4-1.2-2.6-2.6-2.6-1.5 0-2.7 1.2-2.7 2.6 0 1.5 1.2 2.7 2.7 2.7z"/>
				<path class="s4" d="m56.7 5.3c1.5 0 2.7-1.2 2.7-2.7 0-1.4-1.2-2.6-2.7-2.6-1.4 0-2.6 1.2-2.6 2.6 0 1.5 1.2 2.7 2.6 2.7z"/>
				<path class="s4" d="m70.2 5.3c1.5 0 2.7-1.2 2.7-2.7 0-1.4-1.2-2.6-2.7-2.6-1.4 0-2.6 1.2-2.6 2.6 0 1.5 1.2 2.7 2.6 2.7z"/>
				<path class="s4" d="m83.7 5.3c1.5 0 2.7-1.2 2.7-2.7 0-1.4-1.2-2.6-2.7-2.6-1.4 0-2.6 1.2-2.6 2.6 0 1.5 1.2 2.7 2.6 2.7z"/>
				<path class="s4" d="m97.2 5.3c1.5 0 2.7-1.2 2.7-2.7 0-1.4-1.2-2.6-2.7-2.6-1.4 0-2.6 1.2-2.6 2.6 0 1.5 1.2 2.7 2.6 2.7z"/>
				<path class="s4" d="m2.8 18.8c1.4 0 2.6-1.2 2.6-2.6 0-1.5-1.2-2.7-2.6-2.7-1.5 0-2.7 1.2-2.7 2.7 0 1.4 1.2 2.6 2.7 2.6z"/>
				<path class="s4" d="m16.3 18.8c1.4 0 2.6-1.2 2.6-2.6 0-1.5-1.2-2.7-2.6-2.7-1.5 0-2.7 1.2-2.7 2.7 0 1.4 1.2 2.6 2.7 2.6z"/>
				<path class="s4" d="m29.8 18.8c1.4 0 2.6-1.2 2.6-2.6 0-1.5-1.2-2.7-2.6-2.7-1.5 0-2.7 1.2-2.7 2.7 0 1.4 1.2 2.6 2.7 2.6z"/>
				<path class="s4" d="m43.3 18.8c1.4 0 2.6-1.2 2.6-2.6 0-1.5-1.2-2.7-2.6-2.7-1.5 0-2.7 1.2-2.7 2.7 0 1.4 1.2 2.6 2.7 2.6z"/>
				<path class="s4" d="m56.7 18.8c1.5 0 2.7-1.2 2.7-2.6 0-1.5-1.2-2.7-2.7-2.7-1.4 0-2.6 1.2-2.6 2.7 0 1.4 1.2 2.6 2.6 2.6z"/>
				<path class="s4" d="m70.2 18.8c1.5 0 2.7-1.2 2.7-2.6 0-1.5-1.2-2.7-2.7-2.7-1.4 0-2.6 1.2-2.6 2.7 0 1.4 1.2 2.6 2.6 2.6z"/>
				<path class="s4" d="m83.7 18.8c1.5 0 2.7-1.2 2.7-2.6 0-1.5-1.2-2.7-2.7-2.7-1.4 0-2.6 1.2-2.6 2.7 0 1.4 1.2 2.6 2.6 2.6z"/>
				<path class="s4" d="m97.2 18.8c1.5 0 2.7-1.2 2.7-2.6 0-1.5-1.2-2.7-2.7-2.7-1.4 0-2.6 1.2-2.6 2.7 0 1.4 1.2 2.6 2.6 2.6z"/>
				<path class="s4" d="m2.8 32.4c1.4 0 2.6-1.2 2.6-2.7 0-1.5-1.2-2.6-2.6-2.6-1.5 0-2.7 1.1-2.7 2.6 0 1.5 1.2 2.7 2.7 2.7z"/>
				<path class="s4" d="m16.3 32.4c1.4 0 2.6-1.2 2.6-2.7 0-1.5-1.2-2.6-2.6-2.6-1.5 0-2.7 1.1-2.7 2.6 0 1.5 1.2 2.7 2.7 2.7z"/>
				<path class="s4" d="m29.8 32.4c1.4 0 2.6-1.2 2.6-2.7 0-1.5-1.2-2.6-2.6-2.6-1.5 0-2.7 1.1-2.7 2.6 0 1.5 1.2 2.7 2.7 2.7z"/>
				<path class="s4" d="m43.3 32.4c1.4 0 2.6-1.2 2.6-2.7 0-1.5-1.2-2.6-2.6-2.6-1.5 0-2.7 1.1-2.7 2.6 0 1.5 1.2 2.7 2.7 2.7z"/>
				<path class="s4" d="m56.7 32.4c-1.4 0-2.6-1.2-2.6-2.7 0-1.5 1.2-2.6 2.6-2.6 1.5 0 2.7 1.1 2.7 2.6 0 1.5-1.2 2.7-2.7 2.7z"/>
				<path class="s4" d="m70.2 32.4c1.5 0 2.7-1.2 2.7-2.7 0-1.5-1.2-2.6-2.7-2.6-1.4 0-2.6 1.1-2.6 2.6 0 1.5 1.2 2.7 2.6 2.7z"/>
				<path class="s4" d="m83.7 32.4c1.5 0 2.7-1.2 2.7-2.7 0-1.5-1.2-2.6-2.7-2.6-1.4 0-2.6 1.1-2.6 2.6 0 1.5 1.2 2.7 2.6 2.7z"/>
				<path class="s4" d="m97.2 32.4c1.5 0 2.7-1.2 2.7-2.7 0-1.5-1.2-2.6-2.7-2.6-1.4 0-2.6 1.1-2.6 2.6 0 1.5 1.2 2.7 2.6 2.7z"/>
				<path class="s4" d="m2.8 45.9c1.4 0 2.6-1.2 2.6-2.7 0-1.4-1.2-2.6-2.6-2.6-1.5 0-2.7 1.2-2.7 2.6 0 1.5 1.2 2.7 2.7 2.7z"/>
				<path class="s4" d="m16.3 45.9c1.4 0 2.6-1.2 2.6-2.7 0-1.4-1.2-2.6-2.6-2.6-1.5 0-2.7 1.2-2.7 2.6 0 1.5 1.2 2.7 2.7 2.7z"/>
				<path class="s4" d="m29.8 45.9c1.4 0 2.6-1.2 2.6-2.7 0-1.4-1.2-2.6-2.6-2.6-1.5 0-2.7 1.2-2.7 2.6 0 1.5 1.2 2.7 2.7 2.7z"/>
				<path class="s4" d="m2.8 59.4c1.4 0 2.6-1.2 2.6-2.6 0-1.5-1.2-2.7-2.6-2.7-1.5 0-2.7 1.2-2.7 2.7 0 1.4 1.2 2.6 2.7 2.6z"/>
				<path class="s4" d="m16.3 59.4c1.4 0 2.6-1.2 2.6-2.6 0-1.5-1.2-2.7-2.6-2.7-1.5 0-2.7 1.2-2.7 2.7 0 1.4 1.2 2.6 2.7 2.6z"/>
				<path class="s4" d="m29.8 59.4c1.4 0 2.6-1.2 2.6-2.6 0-1.5-1.2-2.7-2.6-2.7-1.5 0-2.7 1.2-2.7 2.7 0 1.4 1.2 2.6 2.7 2.6z"/>
				<path class="s4" d="m2.8 72.9c1.4 0 2.6-1.1 2.6-2.6 0-1.5-1.2-2.7-2.6-2.7-1.5 0-2.7 1.2-2.7 2.7 0 1.5 1.2 2.6 2.7 2.6z"/>
				<path class="s4" d="m16.3 72.9c1.4 0 2.6-1.1 2.6-2.6 0-1.5-1.2-2.7-2.6-2.7-1.5 0-2.7 1.2-2.7 2.7 0 1.5 1.2 2.6 2.7 2.6z"/>
				<path class="s4" d="m29.8 72.9c1.4 0 2.6-1.1 2.6-2.6 0-1.5-1.2-2.7-2.6-2.7-1.5 0-2.7 1.2-2.7 2.7 0 1.5 1.2 2.6 2.7 2.6z"/>
				<path class="s4" d="m2.8 86.5c1.4 0 2.6-1.2 2.6-2.7 0-1.4-1.2-2.6-2.6-2.6-1.5 0-2.7 1.2-2.7 2.6 0 1.5 1.2 2.7 2.7 2.7z"/>
				<path class="s4" d="m16.3 86.5c1.4 0 2.6-1.2 2.6-2.7 0-1.4-1.2-2.6-2.6-2.6-1.5 0-2.7 1.2-2.7 2.6 0 1.5 1.2 2.7 2.7 2.7z"/>
				<path class="s4" d="m29.8 86.5c1.4 0 2.6-1.2 2.6-2.7 0-1.4-1.2-2.6-2.6-2.6-1.5 0-2.7 1.2-2.7 2.6 0 1.5 1.2 2.7 2.7 2.7z"/>
				<path class="s4" d="m2.8 100c1.4 0 2.6-1.2 2.6-2.6 0-1.5-1.2-2.7-2.6-2.7-1.5 0-2.7 1.2-2.7 2.7 0 1.4 1.2 2.6 2.7 2.6z"/>
				<path class="s4" d="m16.3 100c1.4 0 2.6-1.2 2.6-2.6 0-1.5-1.2-2.7-2.6-2.7-1.5 0-2.7 1.2-2.7 2.7 0 1.4 1.2 2.6 2.7 2.6z"/>
				<path class="s4" d="m29.8 100c1.4 0 2.6-1.2 2.6-2.6 0-1.5-1.2-2.7-2.6-2.7-1.5 0-2.7 1.2-2.7 2.7 0 1.4 1.2 2.6 2.7 2.6z"/>
			</g>
		</g>
		<g id="Clip-Path" clip-path="url(#cp2)">
			<g>
				<path class="s1" d="m514 114h-80v80h80z"/>
				<path class="s5" d="m456.3 138.2c1.2 0 2.1-0.9 2.1-2.1 0-1.2-0.9-2.1-2.1-2.1-1.2 0-2.1 0.9-2.1 2.1 0 1.2 0.9 2.1 2.1 2.1z"/>
				<path class="s5" d="m467.1 138.2c1.2 0 2.1-0.9 2.1-2.1 0-1.2-0.9-2.1-2.1-2.1-1.2 0-2.1 0.9-2.1 2.1 0 1.2 0.9 2.1 2.1 2.1z"/>
				<path class="s5" d="m477.9 138.2c1.2 0 2.1-0.9 2.1-2.1 0-1.2-0.9-2.1-2.1-2.1-1.2 0-2.1 0.9-2.1 2.1 0 1.2 0.9 2.1 2.1 2.1z"/>
				<path class="s5" d="m488.7 138.2c1.2 0 2.1-0.9 2.1-2.1 0-1.2-0.9-2.1-2.1-2.1-1.2 0-2.1 0.9-2.1 2.1 0 1.2 0.9 2.1 2.1 2.1z"/>
				<path class="s5" d="m499.5 138.2c1.2 0 2.1-0.9 2.1-2.1 0-1.2-0.9-2.1-2.1-2.1-1.2 0-2.1 0.9-2.1 2.1 0 1.2 0.9 2.1 2.1 2.1z"/>
				<path class="s5" d="m510.3 138.2c1.2 0 2.1-0.9 2.1-2.1 0-1.2-0.9-2.1-2.1-2.1-1.2 0-2.1 0.9-2.1 2.1 0 1.2 0.9 2.1 2.1 2.1z"/>
				<path class="s5" d="m521.1 138.2c1.2 0 2.1-0.9 2.1-2.1 0-1.2-0.9-2.1-2.1-2.1-1.2 0-2.1 0.9-2.1 2.1 0 1.2 0.9 2.1 2.1 2.1z"/>
				<path class="s5" d="m531.9 138.2c1.2 0 2.1-0.9 2.1-2.1 0-1.2-0.9-2.1-2.1-2.1-1.2 0-2.1 0.9-2.1 2.1 0 1.2 0.9 2.1 2.1 2.1z"/>
				<path class="s5" d="m456.3 149.1c1.2 0 2.1-1 2.1-2.2 0-1.1-0.9-2.1-2.1-2.1-1.2 0-2.1 1-2.1 2.1 0 1.2 0.9 2.2 2.1 2.2z"/>
				<path class="s5" d="m467.1 149.1c1.2 0 2.1-1 2.1-2.2 0-1.1-0.9-2.1-2.1-2.1-1.2 0-2.1 1-2.1 2.1 0 1.2 0.9 2.2 2.1 2.2z"/>
				<path class="s5" d="m477.9 149.1c1.2 0 2.1-1 2.1-2.2 0-1.1-0.9-2.1-2.1-2.1-1.2 0-2.1 1-2.1 2.1 0 1.2 0.9 2.2 2.1 2.2z"/>
				<path class="s5" d="m488.7 149.1c1.2 0 2.1-1 2.1-2.2 0-1.1-0.9-2.1-2.1-2.1-1.2 0-2.1 1-2.1 2.1 0 1.2 0.9 2.2 2.1 2.2z"/>
				<path class="s5" d="m499.5 149.1c1.2 0 2.1-1 2.1-2.2 0-1.1-0.9-2.1-2.1-2.1-1.2 0-2.1 1-2.1 2.1 0 1.2 0.9 2.2 2.1 2.2z"/>
				<path class="s5" d="m510.3 149.1c1.2 0 2.1-1 2.1-2.2 0-1.1-0.9-2.1-2.1-2.1-1.2 0-2.1 1-2.1 2.1 0 1.2 0.9 2.2 2.1 2.2z"/>
				<path class="s5" d="m521.1 149.1c1.2 0 2.1-1 2.1-2.2 0-1.1-0.9-2.1-2.1-2.1-1.2 0-2.1 1-2.1 2.1 0 1.2 0.9 2.2 2.1 2.2z"/>
				<path class="s5" d="m531.9 149.1c1.2 0 2.1-1 2.1-2.2 0-1.1-0.9-2.1-2.1-2.1-1.2 0-2.1 1-2.1 2.1 0 1.2 0.9 2.2 2.1 2.2z"/>
				<path class="s5" d="m456.3 159.9c1.2 0 2.1-1 2.1-2.1 0-1.2-0.9-2.2-2.1-2.2-1.2 0-2.1 1-2.1 2.2 0 1.1 0.9 2.1 2.1 2.1z"/>
				<path class="s5" d="m467.1 159.9c1.2 0 2.1-1 2.1-2.1 0-1.2-0.9-2.2-2.1-2.2-1.2 0-2.1 1-2.1 2.2 0 1.1 0.9 2.1 2.1 2.1z"/>
				<path class="s5" d="m477.9 159.9c1.2 0 2.1-1 2.1-2.1 0-1.2-0.9-2.2-2.1-2.2-1.2 0-2.1 1-2.1 2.2 0 1.1 0.9 2.1 2.1 2.1z"/>
				<path class="s5" d="m488.7 159.9c1.2 0 2.1-1 2.1-2.1 0-1.2-0.9-2.2-2.1-2.2-1.2 0-2.1 1-2.1 2.2 0 1.1 0.9 2.1 2.1 2.1z"/>
				<path class="s5" d="m499.5 159.9c1.2 0 2.1-1 2.1-2.1 0-1.2-0.9-2.2-2.1-2.2-1.2 0-2.1 1-2.1 2.2 0 1.1 0.9 2.1 2.1 2.1z"/>
				<path class="s5" d="m510.3 159.9c1.2 0 2.1-1 2.1-2.1 0-1.2-0.9-2.2-2.1-2.2-1.2 0-2.1 1-2.1 2.2 0 1.1 0.9 2.1 2.1 2.1z"/>
				<path class="s5" d="m521.1 159.9c1.2 0 2.1-1 2.1-2.1 0-1.2-0.9-2.2-2.1-2.2-1.2 0-2.1 1-2.1 2.2 0 1.1 0.9 2.1 2.1 2.1z"/>
				<path class="s5" d="m531.9 159.9c1.2 0 2.1-1 2.1-2.1 0-1.2-0.9-2.2-2.1-2.2-1.2 0-2.1 1-2.1 2.2 0 1.1 0.9 2.1 2.1 2.1z"/>
				<path class="s5" d="m456.3 170.7c1.2 0 2.1-0.9 2.1-2.1 0-1.2-0.9-2.1-2.1-2.1-1.2 0-2.1 0.9-2.1 2.1 0 1.2 0.9 2.1 2.1 2.1z"/>
				<path class="s5" d="m467.1 170.7c1.2 0 2.1-0.9 2.1-2.1 0-1.2-0.9-2.1-2.1-2.1-1.2 0-2.1 0.9-2.1 2.1 0 1.2 0.9 2.1 2.1 2.1z"/>
				<path class="s5" d="m477.9 170.7c1.2 0 2.1-0.9 2.1-2.1 0-1.2-0.9-2.1-2.1-2.1-1.2 0-2.1 0.9-2.1 2.1 0 1.2 0.9 2.1 2.1 2.1z"/>
				<path class="s5" d="m488.7 170.7c1.2 0 2.1-0.9 2.1-2.1 0-1.2-0.9-2.1-2.1-2.1-1.2 0-2.1 0.9-2.1 2.1 0 1.2 0.9 2.1 2.1 2.1z"/>
				<path class="s5" d="m499.5 170.7c1.2 0 2.1-0.9 2.1-2.1 0-1.2-0.9-2.1-2.1-2.1-1.2 0-2.1 0.9-2.1 2.1 0 1.2 0.9 2.1 2.1 2.1z"/>
				<path class="s5" d="m510.3 170.7c1.2 0 2.1-0.9 2.1-2.1 0-1.2-0.9-2.1-2.1-2.1-1.2 0-2.1 0.9-2.1 2.1 0 1.2 0.9 2.1 2.1 2.1z"/>
				<path class="s5" d="m521.1 170.7c1.2 0 2.1-0.9 2.1-2.1 0-1.2-0.9-2.1-2.1-2.1-1.2 0-2.1 0.9-2.1 2.1 0 1.2 0.9 2.1 2.1 2.1z"/>
				<path class="s5" d="m531.9 170.7c1.2 0 2.1-0.9 2.1-2.1 0-1.2-0.9-2.1-2.1-2.1-1.2 0-2.1 0.9-2.1 2.1 0 1.2 0.9 2.1 2.1 2.1z"/>
				<path class="s5" d="m456.3 181.5c1.2 0 2.1-0.9 2.1-2.1 0-1.2-0.9-2.1-2.1-2.1-1.2 0-2.1 0.9-2.1 2.1 0 1.2 0.9 2.1 2.1 2.1z"/>
				<path class="s5" d="m467.1 181.5c1.2 0 2.1-0.9 2.1-2.1 0-1.2-0.9-2.1-2.1-2.1-1.2 0-2.1 0.9-2.1 2.1 0 1.2 0.9 2.1 2.1 2.1z"/>
				<path class="s5" d="m477.9 181.5c1.2 0 2.1-0.9 2.1-2.1 0-1.2-0.9-2.1-2.1-2.1-1.2 0-2.1 0.9-2.1 2.1 0 1.2 0.9 2.1 2.1 2.1z"/>
				<path class="s5" d="m488.7 181.5c1.2 0 2.1-0.9 2.1-2.1 0-1.2-0.9-2.1-2.1-2.1-1.2 0-2.1 0.9-2.1 2.1 0 1.2 0.9 2.1 2.1 2.1z"/>
				<path class="s5" d="m499.5 181.5c1.2 0 2.1-0.9 2.1-2.1 0-1.2-0.9-2.1-2.1-2.1-1.2 0-2.1 0.9-2.1 2.1 0 1.2 0.9 2.1 2.1 2.1z"/>
				<path class="s5" d="m510.3 181.5c1.2 0 2.1-0.9 2.1-2.1 0-1.2-0.9-2.1-2.1-2.1-1.2 0-2.1 0.9-2.1 2.1 0 1.2 0.9 2.1 2.1 2.1z"/>
				<path class="s5" d="m521.1 181.5c1.2 0 2.1-0.9 2.1-2.1 0-1.2-0.9-2.1-2.1-2.1-1.2 0-2.1 0.9-2.1 2.1 0 1.2 0.9 2.1 2.1 2.1z"/>
				<path class="s5" d="m531.9 181.5c1.2 0 2.1-0.9 2.1-2.1 0-1.2-0.9-2.1-2.1-2.1-1.2 0-2.1 0.9-2.1 2.1 0 1.2 0.9 2.1 2.1 2.1z"/>
				<path class="s5" d="m456.3 192.4c1.2 0 2.1-1 2.1-2.2 0-1.1-0.9-2.1-2.1-2.1-1.2 0-2.1 1-2.1 2.1 0 1.2 0.9 2.2 2.1 2.2z"/>
				<path class="s5" d="m467.1 192.4c1.2 0 2.1-1 2.1-2.2 0-1.1-0.9-2.1-2.1-2.1-1.2 0-2.1 1-2.1 2.1 0 1.2 0.9 2.2 2.1 2.2z"/>
				<path class="s5" d="m477.9 192.4c1.2 0 2.1-1 2.1-2.2 0-1.1-0.9-2.1-2.1-2.1-1.2 0-2.1 1-2.1 2.1 0 1.2 0.9 2.2 2.1 2.2z"/>
				<path class="s5" d="m488.7 192.4c1.2 0 2.1-1 2.1-2.2 0-1.1-0.9-2.1-2.1-2.1-1.2 0-2.1 1-2.1 2.1 0 1.2 0.9 2.2 2.1 2.2z"/>
				<path class="s5" d="m499.5 192.4c1.2 0 2.1-1 2.1-2.2 0-1.1-0.9-2.1-2.1-2.1-1.2 0-2.1 1-2.1 2.1 0 1.2 0.9 2.2 2.1 2.2z"/>
				<path class="s5" d="m510.3 192.4c1.2 0 2.1-1 2.1-2.2 0-1.1-0.9-2.1-2.1-2.1-1.2 0-2.1 1-2.1 2.1 0 1.2 0.9 2.2 2.1 2.2z"/>
				<path class="s5" d="m521.1 192.4c1.2 0 2.1-1 2.1-2.2 0-1.1-0.9-2.1-2.1-2.1-1.2 0-2.1 1-2.1 2.1 0 1.2 0.9 2.2 2.1 2.2z"/>
				<path class="s5" d="m531.9 192.4c1.2 0 2.1-1 2.1-2.2 0-1.1-0.9-2.1-2.1-2.1-1.2 0-2.1 1-2.1 2.1 0 1.2 0.9 2.2 2.1 2.2z"/>
				<path class="s5" d="m456.3 203.2c1.2 0 2.1-1 2.1-2.1 0-1.2-0.9-2.2-2.1-2.2-1.2 0-2.1 1-2.1 2.2 0 1.1 0.9 2.1 2.1 2.1z"/>
				<path class="s5" d="m467.1 203.2c1.2 0 2.1-1 2.1-2.1 0-1.2-0.9-2.2-2.1-2.2-1.2 0-2.1 1-2.1 2.2 0 1.1 0.9 2.1 2.1 2.1z"/>
				<path class="s5" d="m477.9 203.2c1.2 0 2.1-1 2.1-2.1 0-1.2-0.9-2.2-2.1-2.2-1.2 0-2.1 1-2.1 2.2 0 1.1 0.9 2.1 2.1 2.1z"/>
				<path class="s5" d="m488.7 203.2c1.2 0 2.1-1 2.1-2.1 0-1.2-0.9-2.2-2.1-2.2-1.2 0-2.1 1-2.1 2.2 0 1.1 0.9 2.1 2.1 2.1z"/>
				<path class="s5" d="m499.5 203.2c1.2 0 2.1-1 2.1-2.1 0-1.2-0.9-2.2-2.1-2.2-1.2 0-2.1 1-2.1 2.2 0 1.1 0.9 2.1 2.1 2.1z"/>
				<path class="s5" d="m510.3 203.2c1.2 0 2.1-1 2.1-2.1 0-1.2-0.9-2.2-2.1-2.2-1.2 0-2.1 1-2.1 2.2 0 1.1 0.9 2.1 2.1 2.1z"/>
				<path class="s5" d="m521.1 203.2c1.2 0 2.1-1 2.1-2.1 0-1.2-0.9-2.2-2.1-2.2-1.2 0-2.1 1-2.1 2.2 0 1.1 0.9 2.1 2.1 2.1z"/>
				<path class="s5" d="m531.9 203.2c1.2 0 2.1-1 2.1-2.1 0-1.2-0.9-2.2-2.1-2.2-1.2 0-2.1 1-2.1 2.2 0 1.1 0.9 2.1 2.1 2.1z"/>
				<path class="s5" d="m456.3 214c1.2 0 2.1-0.9 2.1-2.1 0-1.2-0.9-2.1-2.1-2.1-1.2 0-2.1 0.9-2.1 2.1 0 1.2 0.9 2.1 2.1 2.1z"/>
				<path class="s5" d="m467.1 214c1.2 0 2.1-0.9 2.1-2.1 0-1.2-0.9-2.1-2.1-2.1-1.2 0-2.1 0.9-2.1 2.1 0 1.2 0.9 2.1 2.1 2.1z"/>
				<path class="s5" d="m477.9 214c1.2 0 2.1-0.9 2.1-2.1 0-1.2-0.9-2.1-2.1-2.1-1.2 0-2.1 0.9-2.1 2.1 0 1.2 0.9 2.1 2.1 2.1z"/>
				<path class="s5" d="m488.7 214c1.2 0 2.1-0.9 2.1-2.1 0-1.2-0.9-2.1-2.1-2.1-1.2 0-2.1 0.9-2.1 2.1 0 1.2 0.9 2.1 2.1 2.1z"/>
				<path class="s5" d="m499.5 214c1.2 0 2.1-0.9 2.1-2.1 0-1.2-0.9-2.1-2.1-2.1-1.2 0-2.1 0.9-2.1 2.1 0 1.2 0.9 2.1 2.1 2.1z"/>
				<path class="s5" d="m510.3 214c1.2 0 2.1-0.9 2.1-2.1 0-1.2-0.9-2.1-2.1-2.1-1.2 0-2.1 0.9-2.1 2.1 0 1.2 0.9 2.1 2.1 2.1z"/>
				<path class="s5" d="m521.1 214c1.2 0 2.1-0.9 2.1-2.1 0-1.2-0.9-2.1-2.1-2.1-1.2 0-2.1 0.9-2.1 2.1 0 1.2 0.9 2.1 2.1 2.1z"/>
				<path class="s5" d="m531.9 214c1.2 0 2.1-0.9 2.1-2.1 0-1.2-0.9-2.1-2.1-2.1-1.2 0-2.1 0.9-2.1 2.1 0 1.2 0.9 2.1 2.1 2.1z"/>
			</g>
		</g>
	</g>
</svg>
