<svg width="225" height="223" viewBox="0 0 225 223" fill="none" xmlns="http://www.w3.org/2000/svg">
	<title>corev-logo-dark</title>
	<style>
		.s0 { fill: #aeffde }
		.s1 { fill: #ffffff }
	</style>
	<g id="Layer 1">
		<path fill-rule="evenodd" class="s0" d="m1.5 124.4c2-2 5.3-2 7.3 0l38.6 38.2c2 2 2 5.2 0 7.2l-38.6 38.1c-2 2-5.3 2-7.3 0-2-1.9-2-5.2 0-7.2l35-34.5-35-34.6c-2-2-2-5.2 0-7.2zm50 92.7c0-2.8 2.3-5.1 5.1-5.1h51.5c2.8 0 5.1 2.3 5.1 5.1 0 2.8-2.3 5.1-5.1 5.1h-51.5c-2.8 0-5.1-2.3-5.1-5.1z"/>
		<path fill-rule="evenodd" class="s1" d="m152.3 30.2c-11.5-13.9-26.2-23.3-47-23.3-19.1 0-33.3 9.8-43.6 23.8-6.5 0.2-13.9 0.7-20.3 1.9-3.7 0.6-7.3 1.6-10.4 3-2.8 1.4-6.2 3.7-7.6 7.6-1.3 3.7-0.3 7.2 1 9.8 1.3 2.7 3.3 5.2 5.5 7.6 3.6 3.9 8.2 7.8 12.8 11.4-2.6 8.9-4.5 17.9-6.1 26.7-6.8 39 24.5 71.1 62.8 72.6 13.5 0.5 27.5 0.9 40 0.9 24.6 0 50.5-1.4 68.2-2.6 6.7-0.5 11.1-5.2 12.9-10.3 1.7-5.1 1.1-11.4-3.1-16.1-16-18-26.6-40.7-36.9-62.9l-0.2-0.5c-8.5-18.1-16.8-36.2-28-49.6zm-117.8 16.5q0 0 0 0 0 0 0 0zm108.8-9.1c10.1 12.2 17.9 28.9 26.6 47.6l5.2-2.4-5.2 2.4 0.2 0.4c10.1 21.8 21.3 46 38.5 65.4 1 1.1 1.4 2.9 0.8 4.5-0.6 1.6-1.6 2.3-2.6 2.4l0.4 5.8-0.4-5.8c-17.6 1.2-43.2 2.6-67.4 2.6-12.3 0-26.1-0.4-39.6-0.9-32.4-1.2-57-28-51.7-58.9l-5.5-0.9 5.5 0.9c1.7-9.7 4-19.7 6.9-29.2 0.8-2.4-0.1-4.9-2.1-6.4-5.4-4-10.7-8.4-14.4-12.4-1.8-2-3-3.6-3.6-4.9q-0.2-0.5-0.3-0.7c0.2-0.2 0.7-0.5 1.5-0.9 1.7-0.8 4.2-1.5 7.4-2.1 6.4-1.2 14.4-1.7 21.3-1.8 1.9 0 3.7-0.9 4.7-2.5 9-13.1 20.6-21.2 35.8-21.2 16.6 0 28.2 7.2 38 19z"/>
		<path fill-rule="evenodd" class="s1" d="m118.1 73c-3.2 0-5.8 2.7-5.8 5.9q0 3.5 0 6.8c0.8 30.6 25.5 52.9 55.4 53.7 10.9 0.3 24.7 0 34.6-1.4 3.2-0.5 5.4-3.4 5-6.6-0.5-3.2-3.4-5.4-6.6-5-9 1.3-22.1 1.6-32.7 1.3-24.3-0.6-43.4-18.5-44-42.2q0-3.2 0-6.6c0-3.2-2.7-5.9-5.9-5.9z"/>
		<path fill-rule="evenodd" class="s1" d="m92.5 49.6c-3.2 0-5.8 2.6-5.8 5.8v4.3c0 3.2 2.6 5.9 5.8 5.9 3.3 0 5.9-2.7 5.9-5.9v-4.3c0-3.2-2.6-5.8-5.9-5.8z"/>
		<path fill-rule="evenodd" class="s1" d="m137 160.8c-3-1-6.4 0.6-7.4 3.7l-8.5 25.6c-1 3 0.6 6.3 3.7 7.4 3.1 1 6.4-0.7 7.4-3.7l8.5-25.6c1-3.1-0.6-6.4-3.7-7.4z"/>
		<path fill-rule="evenodd" class="s1" d="m85.1 157.7c-3-1.2-6.4 0.2-7.6 3.2l-11.7 28.8c-1.2 3 0.2 6.4 3.2 7.6 3 1.2 6.4-0.2 7.6-3.2l11.7-28.8c1.3-3-0.2-6.4-3.2-7.6z"/>
	</g>
</svg>
