<svg xmlns="http://www.w3.org/2000/svg" height="auto" fill="none" viewBox="0 0 534 219"><path fill="#333" d="M388.968 85.873q.98.453 1.508 1.283a2.95 2.95 0 0 1 .528 1.735q0 .678-.377 1.433l-15.991 33.716q-1.132 2.49-3.469 2.489-1.282 0-2.112-.528-.83-.603-1.509-1.961l-15.991-33.716a3 3 0 0 1-.302-1.358q0-2.037 2.112-3.093.68-.377 1.584-.377.906 0 1.735.528.83.453 1.283 1.358l13.124 28.286 12.974-28.286q.453-.905 1.282-1.358a3.7 3.7 0 0 1 1.886-.528q.98 0 1.735.377m-40.095 19.461q0 1.433-.981 2.414-.98.905-2.489.905H316.74q.83 5.28 4.752 8.523 3.998 3.244 9.73 3.244 2.264 0 4.677-.83 2.489-.83 4.073-2.037 1.056-.83 2.489-.829 1.434 0 2.263.754 1.358 1.131 1.358 2.565 0 1.358-1.207 2.262-2.565 2.037-6.411 3.319-3.772 1.283-7.242 1.283-6.185 0-11.088-2.64-4.902-2.716-7.693-7.468-2.716-4.752-2.716-10.786t2.565-10.786q2.64-4.828 7.241-7.468 4.677-2.715 10.56-2.715 5.808 0 10.032 2.564t6.487 7.166q2.262 4.6 2.263 10.56m-18.782-13.803q-5.507 0-8.976 3.017-3.394 3.016-4.299 8.071h25.117q-.678-5.055-3.771-8.071-3.093-3.018-8.071-3.017m-31.702-6.638q3.997 0 6.261 1.207 2.262 1.206 2.263 3.017 0 .528-.076.754-.678 2.415-3.017 2.414-.376 0-1.131-.151-3.018-.528-4.903-.528-5.431 0-8.75 2.49-3.319 2.488-3.319 6.712v22.025q0 1.811-.98 2.791-.906.981-2.791.981-1.81 0-2.791-.905-.981-.98-.981-2.867V89.117q0-1.81.981-2.791.98-.98 2.791-.98 3.771 0 3.771 3.77v1.434q2.263-2.64 5.582-4.149t7.09-1.508m-52.408 42.014q-6.034 0-10.786-2.64-4.752-2.716-7.392-7.468t-2.64-10.786q0-6.11 2.64-10.862t7.392-7.392q4.752-2.715 10.786-2.715 5.96 0 10.636 2.715 4.752 2.64 7.392 7.392 2.715 4.752 2.715 10.862 0 6.034-2.64 10.786t-7.392 7.468q-4.677 2.64-10.711 2.64m0-6.789q3.847 0 6.864-1.81a12.24 12.24 0 0 0 4.752-4.979q1.735-3.243 1.735-7.316t-1.735-7.317q-1.659-3.243-4.752-5.053-3.017-1.81-6.864-1.81t-6.939 1.81q-3.018 1.81-4.752 5.053-1.735 3.244-1.735 7.317t1.735 7.316q1.734 3.168 4.752 4.979 3.092 1.81 6.939 1.81m-45.301 6.789q-5.96 0-10.711-2.716-4.752-2.715-7.468-7.467-2.64-4.828-2.64-10.711 0-6.034 2.565-10.786 2.64-4.828 7.317-7.468 4.676-2.715 10.56-2.715 8.9 0 14.784 6.788.754.83.754 1.961 0 1.66-1.66 2.791a2.95 2.95 0 0 1-1.734.528q-1.736 0-2.942-1.357-1.886-2.037-4.149-2.942-2.187-.98-5.053-.98-5.808 0-9.429 3.922-3.621 3.847-3.621 10.258 0 4.073 1.66 7.316 1.734 3.168 4.752 4.979 3.093 1.81 7.015 1.81 5.129 0 8.297-2.64 1.433-1.056 2.791-1.056 1.055 0 1.961.679 1.433 1.207 1.433 2.715 0 1.132-.905 2.037-5.431 5.054-13.577 5.054"/><path fill="#AEFFDE" fill-rule="evenodd" d="M143.151 79.991a3.46 3.46 0 0 1 4.849 0l25.714 25.385a3.354 3.354 0 0 1 0 4.787L148 135.547a3.46 3.46 0 0 1-4.849 0 3.353 3.353 0 0 1 0-4.786l23.29-22.992-23.29-22.991a3.354 3.354 0 0 1 0-4.787m33.282 61.624c0-1.869 1.535-3.384 3.428-3.384h34.286c1.894 0 3.429 1.515 3.429 3.384 0 1.87-1.535 3.385-3.429 3.385h-34.286c-1.893 0-3.428-1.515-3.428-3.385" clip-rule="evenodd"/><path fill="#AEFFDE" d="M69.785 145.067H1v68.785h68.785z"/><path stroke="#333" stroke-linecap="round" stroke-linejoin="round" stroke-width="6" d="M69.785 180.578c15.583 0 28.215-12.632 28.215-28.215s-12.632-28.215-28.215-28.215S41.57 136.78 41.57 152.363s12.632 28.215 28.215 28.215"/><g clip-path="url(#a)"><path fill="#E8FFF6" d="M533 0h-48.5L436 48.5V97h48.5L533 48.5z"/><path fill="#AEFFDE" d="M533 0h-48.5v48.5H533z"/></g><g fill="#333" clip-path="url(#b)"><path d="M2.764 5.298a2.649 2.649 0 1 0 0-5.298 2.649 2.649 0 0 0 0 5.298m13.496 0a2.649 2.649 0 1 0 0-5.298 2.649 2.649 0 0 0 0 5.298m13.496 0a2.649 2.649 0 1 0 0-5.298 2.649 2.649 0 0 0 0 5.298m13.496 0a2.649 2.649 0 1 0 0-5.298 2.649 2.649 0 0 0 0 5.298m13.496 0a2.649 2.649 0 1 0 0-5.298 2.649 2.649 0 0 0 0 5.298m13.496 0a2.649 2.649 0 1 0 0-5.298 2.649 2.649 0 0 0 0 5.298m13.496 0a2.649 2.649 0 1 0 0-5.298 2.649 2.649 0 0 0 0 5.298m13.496 0a2.649 2.649 0 1 0 0-5.298 2.649 2.649 0 0 0 0 5.298M2.764 18.827a2.649 2.649 0 1 0 0-5.298 2.649 2.649 0 0 0 0 5.298m13.496 0a2.649 2.649 0 1 0 0-5.298 2.649 2.649 0 0 0 0 5.298m13.496 0a2.649 2.649 0 1 0 0-5.298 2.649 2.649 0 0 0 0 5.298m13.496 0a2.649 2.649 0 1 0 0-5.298 2.649 2.649 0 0 0 0 5.298m13.496 0a2.649 2.649 0 1 0 0-5.298 2.649 2.649 0 0 0 0 5.298m13.496 0a2.649 2.649 0 1 0 0-5.298 2.649 2.649 0 0 0 0 5.298m13.496 0a2.649 2.649 0 1 0 0-5.298 2.649 2.649 0 0 0 0 5.298m13.496 0a2.649 2.649 0 1 0 0-5.298 2.649 2.649 0 0 0 0 5.298M2.764 32.356a2.649 2.649 0 1 0 0-5.298 2.649 2.649 0 0 0 0 5.298m13.496 0a2.649 2.649 0 1 0 0-5.298 2.649 2.649 0 0 0 0 5.298m13.496 0a2.649 2.649 0 1 0 0-5.298 2.649 2.649 0 0 0 0 5.298m13.496 0a2.649 2.649 0 1 0 0-5.298 2.649 2.649 0 0 0 0 5.298m13.496 0a2.649 2.649 0 1 0 0-5.298 2.649 2.649 0 0 0 0 5.298m13.496 0a2.649 2.649 0 1 0 0-5.298 2.649 2.649 0 0 0 0 5.298m13.496 0a2.649 2.649 0 1 0 0-5.298 2.649 2.649 0 0 0 0 5.298m13.496 0a2.649 2.649 0 1 0 0-5.298 2.649 2.649 0 0 0 0 5.298M2.764 45.885a2.649 2.649 0 1 0 0-5.298 2.649 2.649 0 0 0 0 5.298m13.496 0a2.649 2.649 0 1 0 0-5.298 2.649 2.649 0 0 0 0 5.298m13.496 0a2.649 2.649 0 1 0 0-5.298 2.649 2.649 0 0 0 0 5.298M2.764 59.413a2.649 2.649 0 1 0 0-5.298 2.649 2.649 0 0 0 0 5.298m13.496 0a2.649 2.649 0 1 0 0-5.298 2.649 2.649 0 0 0 0 5.298m13.496 0a2.649 2.649 0 1 0 0-5.298 2.649 2.649 0 0 0 0 5.298M2.764 72.942a2.649 2.649 0 1 0 0-5.298 2.649 2.649 0 0 0 0 5.298m13.496 0a2.649 2.649 0 1 0 0-5.298 2.649 2.649 0 0 0 0 5.298m13.496 0a2.649 2.649 0 1 0 0-5.298 2.649 2.649 0 0 0 0 5.298M2.764 86.471a2.649 2.649 0 1 0 0-5.298 2.649 2.649 0 0 0 0 5.298m13.496 0a2.649 2.649 0 1 0 0-5.298 2.649 2.649 0 0 0 0 5.298m13.496 0a2.649 2.649 0 1 0 0-5.298 2.649 2.649 0 0 0 0 5.298M2.764 100a2.649 2.649 0 1 0 0-5.298 2.649 2.649 0 0 0 0 5.298m13.496 0a2.649 2.649 0 1 0 0-5.298 2.649 2.649 0 0 0 0 5.298m13.496 0a2.649 2.649 0 1 0 0-5.298 2.649 2.649 0 0 0 0 5.298"/></g><g clip-path="url(#c)"><path fill="#AEFFDE" d="M514 114h-80v80h80z"/><path fill="#333" d="M456.303 138.238a2.12 2.12 0 1 0 0-4.239 2.12 2.12 0 0 0 0 4.239m10.797 0a2.12 2.12 0 1 0 0-4.239 2.12 2.12 0 0 0 0 4.239m10.797 0a2.12 2.12 0 1 0 0-4.239 2.12 2.12 0 0 0 0 4.239m10.796 0a2.12 2.12 0 1 0 0-4.239 2.12 2.12 0 0 0 0 4.239m10.797 0a2.12 2.12 0 1 0 0-4.239 2.12 2.12 0 0 0 0 4.239m10.797 0a2.12 2.12 0 1 0 0-4.239 2.12 2.12 0 0 0 0 4.239m10.797 0a2.12 2.12 0 1 0 0-4.239 2.12 2.12 0 0 0 0 4.239m10.797 0a2.12 2.12 0 1 0 0-4.239 2.12 2.12 0 0 0 0 4.239m-75.578 10.823a2.12 2.12 0 1 0 0-4.239 2.12 2.12 0 0 0 0 4.239m10.797 0a2.12 2.12 0 1 0 0-4.239 2.12 2.12 0 0 0 0 4.239m10.797 0a2.12 2.12 0 1 0 0-4.239 2.12 2.12 0 0 0 0 4.239m10.796 0a2.12 2.12 0 1 0 0-4.239 2.12 2.12 0 0 0 0 4.239m10.797 0a2.12 2.12 0 1 0 0-4.239 2.12 2.12 0 0 0 0 4.239m10.797 0a2.12 2.12 0 1 0 0-4.239 2.12 2.12 0 0 0 0 4.239m10.797 0a2.12 2.12 0 1 0 0-4.239 2.12 2.12 0 0 0 0 4.239m10.797 0a2.12 2.12 0 1 0 0-4.239 2.12 2.12 0 0 0 0 4.239m-75.578 10.823a2.12 2.12 0 1 0 0-4.239 2.12 2.12 0 0 0 0 4.239m10.797 0a2.12 2.12 0 1 0 0-4.239 2.12 2.12 0 0 0 0 4.239m10.797 0a2.12 2.12 0 1 0 0-4.239 2.12 2.12 0 0 0 0 4.239m10.796 0a2.12 2.12 0 1 0 0-4.239 2.12 2.12 0 0 0 0 4.239m10.797 0a2.12 2.12 0 1 0 0-4.239 2.12 2.12 0 0 0 0 4.239m10.797 0a2.12 2.12 0 1 0 0-4.239 2.12 2.12 0 0 0 0 4.239m10.797 0a2.12 2.12 0 1 0 0-4.239 2.12 2.12 0 0 0 0 4.239m10.797 0a2.12 2.12 0 1 0 0-4.239 2.12 2.12 0 0 0 0 4.239m-75.578 10.823a2.12 2.12 0 1 0 0-4.239 2.12 2.12 0 0 0 0 4.239m10.797 0a2.12 2.12 0 1 0 0-4.239 2.12 2.12 0 0 0 0 4.239m10.797 0a2.12 2.12 0 1 0 0-4.239 2.12 2.12 0 0 0 0 4.239m10.796 0a2.12 2.12 0 1 0 0-4.239 2.12 2.12 0 0 0 0 4.239m10.797 0a2.12 2.12 0 1 0 0-4.239 2.12 2.12 0 0 0 0 4.239m10.797 0a2.12 2.12 0 1 0 0-4.239 2.12 2.12 0 0 0 0 4.239m10.797 0a2.12 2.12 0 1 0 0-4.239 2.12 2.12 0 0 0 0 4.239m10.797 0a2.12 2.12 0 1 0 0-4.239 2.12 2.12 0 0 0 0 4.239m-75.578 10.824a2.12 2.12 0 1 0 0-4.239 2.12 2.12 0 0 0 0 4.239m10.797 0a2.12 2.12 0 1 0 0-4.239 2.12 2.12 0 0 0 0 4.239m10.797 0a2.12 2.12 0 1 0 0-4.239 2.12 2.12 0 0 0 0 4.239m10.796 0a2.12 2.12 0 1 0 0-4.239 2.12 2.12 0 0 0 0 4.239m10.797 0a2.12 2.12 0 1 0 0-4.239 2.12 2.12 0 0 0 0 4.239m10.797 0a2.12 2.12 0 1 0 0-4.239 2.12 2.12 0 0 0 0 4.239m10.797 0a2.12 2.12 0 1 0 0-4.239 2.12 2.12 0 0 0 0 4.239m10.797 0a2.12 2.12 0 1 0 0-4.239 2.12 2.12 0 0 0 0 4.239m-75.578 10.823a2.12 2.12 0 1 0 0-4.239 2.12 2.12 0 0 0 0 4.239m10.797 0a2.12 2.12 0 1 0 0-4.239 2.12 2.12 0 0 0 0 4.239m10.797 0a2.12 2.12 0 1 0 0-4.239 2.12 2.12 0 0 0 0 4.239m10.796 0a2.12 2.12 0 1 0 0-4.239 2.12 2.12 0 0 0 0 4.239m10.797 0a2.12 2.12 0 1 0 0-4.239 2.12 2.12 0 0 0 0 4.239m10.797 0a2.12 2.12 0 1 0 0-4.239 2.12 2.12 0 0 0 0 4.239m10.797 0a2.12 2.12 0 1 0 0-4.239 2.12 2.12 0 0 0 0 4.239m10.797 0a2.12 2.12 0 1 0 0-4.239 2.12 2.12 0 0 0 0 4.239m-75.578 10.823a2.12 2.12 0 1 0 0-4.239 2.12 2.12 0 0 0 0 4.239m10.797 0a2.12 2.12 0 1 0 0-4.239 2.12 2.12 0 0 0 0 4.239m10.797 0a2.12 2.12 0 1 0 0-4.239 2.12 2.12 0 0 0 0 4.239m10.796 0a2.12 2.12 0 1 0 0-4.239 2.12 2.12 0 0 0 0 4.239m10.797 0a2.12 2.12 0 1 0 0-4.239 2.12 2.12 0 0 0 0 4.239m10.797 0a2.12 2.12 0 1 0 0-4.239 2.12 2.12 0 0 0 0 4.239m10.797 0a2.12 2.12 0 1 0 0-4.239 2.12 2.12 0 0 0 0 4.239m10.797 0a2.12 2.12 0 1 0 0-4.239 2.12 2.12 0 0 0 0 4.239M456.303 214a2.12 2.12 0 1 0 0-4.239 2.12 2.12 0 0 0 0 4.239m10.797 0a2.12 2.12 0 1 0 0-4.239 2.12 2.12 0 0 0 0 4.239m10.797 0a2.12 2.12 0 1 0 0-4.239 2.12 2.12 0 0 0 0 4.239m10.796 0a2.12 2.12 0 1 0 0-4.239 2.12 2.12 0 0 0 0 4.239m10.797 0a2.12 2.12 0 1 0 0-4.239 2.12 2.12 0 0 0 0 4.239m10.797 0a2.12 2.12 0 1 0 0-4.239 2.12 2.12 0 0 0 0 4.239m10.797 0a2.12 2.12 0 1 0 0-4.239 2.12 2.12 0 0 0 0 4.239m10.797 0a2.12 2.12 0 1 0 0-4.239 2.12 2.12 0 0 0 0 4.239"/></g><defs><clipPath id="a"><path fill="#fff" d="M436 0h97v97h-97z"/></clipPath><clipPath id="b"><path fill="#fff" d="M0 0h100v100H0z"/></clipPath><clipPath id="c"><path fill="#fff" d="M434 114h100v100H434z"/></clipPath></defs></svg>