<svg xmlns="http://www.w3.org/2000/svg" height="auto" fill="none" viewBox="0 0 534 219"><defs><clipPath id="cp1" clipPathUnits="userSpaceOnUse"><path d="M436 0h97v97h-97z"/></clipPath><clipPath id="cp2" clipPathUnits="userSpaceOnUse"><path d="M534 114v100H434V114z"/></clipPath></defs><style>.s1{fill:#aeffde}</style><g id="Layer 1"><path d="M389 85.9q.9.4 1.5 1.3.5.7.5 1.7 0 .7-.4 1.4l-16 33.7q-1.1 2.5-3.4 2.5-1.3 0-2.1-.5-.9-.6-1.6-2l-15.9-33.7q-.3-.6-.3-1.3 0-2.1 2.1-3.1.6-.4 1.5-.4 1 0 1.8.5t1.3 1.4l13.1 28.3 13-28.3q.4-.9 1.2-1.4 1-.5 1.9-.5 1 0 1.8.4m-40.1 19.4q0 1.5-1 2.4-1 1-2.5 1h-28.7q.9 5.2 4.8 8.5 4 3.2 9.7 3.2 2.3 0 4.7-.8 2.5-.8 4.1-2 1-.9 2.5-.9 1.4 0 2.2.8 1.4 1.1 1.4 2.5t-1.2 2.3q-2.6 2-6.4 3.3t-7.3 1.3q-6.2 0-11.1-2.6-4.9-2.7-7.7-7.5-2.7-4.8-2.7-10.8t2.6-10.8 7.2-7.4q4.7-2.8 10.6-2.8 5.8 0 10 2.6t6.5 7.2 2.3 10.5m-18.8-13.8q-5.5 0-9 3-3.4 3.1-4.3 8.1h25.1q-.6-5-3.7-8.1-3.1-3-8.1-3m-31.7-6.6q4 0 6.3 1.2 2.2 1.2 2.2 3 0 .5-.1.8-.6 2.4-3 2.4-.4 0-1.1-.2-3-.5-4.9-.5-5.4 0-8.8 2.5-3.3 2.5-3.3 6.7v22q0 1.8-1 2.8-.9 1-2.8 1-1.8 0-2.7-.9-1-1-1-2.9V89.1q0-1.8 1-2.8.9-1 2.7-1 3.8 0 3.8 3.8v1.4q2.3-2.6 5.6-4.1t7.1-1.5m-52.4 42q-6.1 0-10.8-2.6-4.8-2.7-7.4-7.5t-2.6-10.8q0-6.1 2.6-10.8 2.6-4.8 7.4-7.4Q239.9 85 246 85q5.9 0 10.6 2.8 4.8 2.6 7.4 7.4 2.7 4.7 2.7 10.8 0 6-2.6 10.8-2.7 4.8-7.4 7.5-4.7 2.6-10.7 2.6m0-6.8q3.8 0 6.8-1.8 3.1-1.8 4.8-5t1.7-7.3-1.7-7.3-4.8-5.1q-3-1.8-6.8-1.8-3.9 0-7 1.8-3 1.9-4.7 5.1t-1.7 7.3 1.7 7.3 4.7 5q3.1 1.8 7 1.8m-45.3 6.8q-6 0-10.7-2.7-4.8-2.7-7.5-7.5-2.6-4.8-2.6-10.7 0-6 2.5-10.8 2.7-4.8 7.3-7.4 4.7-2.8 10.6-2.8 8.9 0 14.8 6.8.7.9.7 2 0 1.7-1.6 2.8-.8.5-1.8.5-1.7 0-2.9-1.3-1.9-2.1-4.1-3-2.2-1-5.1-1-5.8 0-9.4 4-3.6 3.8-3.6 10.2 0 4.1 1.6 7.3 1.7 3.2 4.8 5t7 1.8q5.1 0 8.3-2.6 1.4-1.1 2.8-1.1 1 0 1.9.7 1.5 1.2 1.5 2.7 0 1.1-.9 2.1-5.5 5-13.6 5" style="fill:#fff"/><path fill-rule="evenodd" d="M143.2 80c1.3-1.3 3.5-1.3 4.8 0l25.7 25.4c1.4 1.3 1.4 3.4 0 4.8L148 135.5c-1.3 1.4-3.5 1.4-4.8 0-1.4-1.3-1.4-3.4 0-4.7l23.2-23-23.2-23c-1.4-1.3-1.4-3.5 0-4.8m33.2 61.6c0-1.9 1.6-3.4 3.5-3.4h34.2c1.9 0 3.5 1.5 3.5 3.4s-1.6 3.4-3.5 3.4h-34.2c-1.9 0-3.5-1.5-3.5-3.4" class="s1"/><path d="M69.8 145.1H1v68.8h68.8z" class="s1"/><path d="M69.8 180.6c15.6 0 28.2-12.7 28.2-28.2 0-15.6-12.6-28.3-28.2-28.3s-28.2 12.7-28.2 28.3c0 15.5 12.6 28.2 28.2 28.2" style="fill:none;stroke:#333;stroke-linecap:round;stroke-linejoin:round;stroke-width:6"/><g id="Clip-Path" clip-path="url(#cp1)"><path d="M533 0h-48.5L436 48.5V97h48.5L533 48.5z" style="fill:#e8fff6"/><path d="M533 0h-48.5v48.5H533z" class="s1"/></g><path d="M2.8 5.3c1.4 0 2.6-1.2 2.6-2.7C5.4 1.2 4.2 0 2.8 0 1.3 0 .1 1.2.1 2.6c0 1.5 1.2 2.7 2.7 2.7m13.5 0c1.4 0 2.6-1.2 2.6-2.7 0-1.4-1.2-2.6-2.6-2.6-1.5 0-2.7 1.2-2.7 2.6 0 1.5 1.2 2.7 2.7 2.7m13.5 0c1.4 0 2.6-1.2 2.6-2.7 0-1.4-1.2-2.6-2.6-2.6-1.5 0-2.7 1.2-2.7 2.6 0 1.5 1.2 2.7 2.7 2.7m13.5 0c1.4 0 2.6-1.2 2.6-2.7 0-1.4-1.2-2.6-2.6-2.6-1.5 0-2.7 1.2-2.7 2.6 0 1.5 1.2 2.7 2.7 2.7m13.4 0c1.5 0 2.7-1.2 2.7-2.7 0-1.4-1.2-2.6-2.7-2.6-1.4 0-2.6 1.2-2.6 2.6 0 1.5 1.2 2.7 2.6 2.7m13.5 0c1.5 0 2.7-1.2 2.7-2.7 0-1.4-1.2-2.6-2.7-2.6-1.4 0-2.6 1.2-2.6 2.6 0 1.5 1.2 2.7 2.6 2.7m13.5 0c1.5 0 2.7-1.2 2.7-2.7 0-1.4-1.2-2.6-2.7-2.6-1.4 0-2.6 1.2-2.6 2.6 0 1.5 1.2 2.7 2.6 2.7m13.5 0c1.5 0 2.7-1.2 2.7-2.7 0-1.4-1.2-2.6-2.7-2.6-1.4 0-2.6 1.2-2.6 2.6 0 1.5 1.2 2.7 2.6 2.7M2.8 18.8c1.4 0 2.6-1.2 2.6-2.6 0-1.5-1.2-2.7-2.6-2.7-1.5 0-2.7 1.2-2.7 2.7 0 1.4 1.2 2.6 2.7 2.6m13.5 0c1.4 0 2.6-1.2 2.6-2.6 0-1.5-1.2-2.7-2.6-2.7-1.5 0-2.7 1.2-2.7 2.7 0 1.4 1.2 2.6 2.7 2.6m13.5 0c1.4 0 2.6-1.2 2.6-2.6 0-1.5-1.2-2.7-2.6-2.7-1.5 0-2.7 1.2-2.7 2.7 0 1.4 1.2 2.6 2.7 2.6m13.5 0c1.4 0 2.6-1.2 2.6-2.6 0-1.5-1.2-2.7-2.6-2.7-1.5 0-2.7 1.2-2.7 2.7 0 1.4 1.2 2.6 2.7 2.6m13.4 0c1.5 0 2.7-1.2 2.7-2.6 0-1.5-1.2-2.7-2.7-2.7-1.4 0-2.6 1.2-2.6 2.7 0 1.4 1.2 2.6 2.6 2.6m13.5 0c1.5 0 2.7-1.2 2.7-2.6 0-1.5-1.2-2.7-2.7-2.7-1.4 0-2.6 1.2-2.6 2.7 0 1.4 1.2 2.6 2.6 2.6m13.5 0c1.5 0 2.7-1.2 2.7-2.6 0-1.5-1.2-2.7-2.7-2.7-1.4 0-2.6 1.2-2.6 2.7 0 1.4 1.2 2.6 2.6 2.6m13.5 0c1.5 0 2.7-1.2 2.7-2.6 0-1.5-1.2-2.7-2.7-2.7-1.4 0-2.6 1.2-2.6 2.7 0 1.4 1.2 2.6 2.6 2.6M2.8 32.4c1.4 0 2.6-1.2 2.6-2.7s-1.2-2.6-2.6-2.6c-1.5 0-2.7 1.1-2.7 2.6s1.2 2.7 2.7 2.7m13.5 0c1.4 0 2.6-1.2 2.6-2.7s-1.2-2.6-2.6-2.6c-1.5 0-2.7 1.1-2.7 2.6s1.2 2.7 2.7 2.7m13.5 0c1.4 0 2.6-1.2 2.6-2.7s-1.2-2.6-2.6-2.6c-1.5 0-2.7 1.1-2.7 2.6s1.2 2.7 2.7 2.7m13.5 0c1.4 0 2.6-1.2 2.6-2.7s-1.2-2.6-2.6-2.6c-1.5 0-2.7 1.1-2.7 2.6s1.2 2.7 2.7 2.7m13.4 0c-1.4 0-2.6-1.2-2.6-2.7s1.2-2.6 2.6-2.6c1.5 0 2.7 1.1 2.7 2.6s-1.2 2.7-2.7 2.7m13.5 0c1.5 0 2.7-1.2 2.7-2.7s-1.2-2.6-2.7-2.6c-1.4 0-2.6 1.1-2.6 2.6s1.2 2.7 2.6 2.7m13.5 0c1.5 0 2.7-1.2 2.7-2.7s-1.2-2.6-2.7-2.6c-1.4 0-2.6 1.1-2.6 2.6s1.2 2.7 2.6 2.7m13.5 0c1.5 0 2.7-1.2 2.7-2.7s-1.2-2.6-2.7-2.6c-1.4 0-2.6 1.1-2.6 2.6s1.2 2.7 2.6 2.7M2.8 45.9c1.4 0 2.6-1.2 2.6-2.7 0-1.4-1.2-2.6-2.6-2.6-1.5 0-2.7 1.2-2.7 2.6 0 1.5 1.2 2.7 2.7 2.7m13.5 0c1.4 0 2.6-1.2 2.6-2.7 0-1.4-1.2-2.6-2.6-2.6-1.5 0-2.7 1.2-2.7 2.6 0 1.5 1.2 2.7 2.7 2.7m13.5 0c1.4 0 2.6-1.2 2.6-2.7 0-1.4-1.2-2.6-2.6-2.6-1.5 0-2.7 1.2-2.7 2.6 0 1.5 1.2 2.7 2.7 2.7m-27 13.5c1.4 0 2.6-1.2 2.6-2.6 0-1.5-1.2-2.7-2.6-2.7-1.5 0-2.7 1.2-2.7 2.7 0 1.4 1.2 2.6 2.7 2.6m13.5 0c1.4 0 2.6-1.2 2.6-2.6 0-1.5-1.2-2.7-2.6-2.7-1.5 0-2.7 1.2-2.7 2.7 0 1.4 1.2 2.6 2.7 2.6m13.5 0c1.4 0 2.6-1.2 2.6-2.6 0-1.5-1.2-2.7-2.6-2.7-1.5 0-2.7 1.2-2.7 2.7 0 1.4 1.2 2.6 2.7 2.6m-27 13.5c1.4 0 2.6-1.1 2.6-2.6s-1.2-2.7-2.6-2.7c-1.5 0-2.7 1.2-2.7 2.7s1.2 2.6 2.7 2.6m13.5 0c1.4 0 2.6-1.1 2.6-2.6s-1.2-2.7-2.6-2.7c-1.5 0-2.7 1.2-2.7 2.7s1.2 2.6 2.7 2.6m13.5 0c1.4 0 2.6-1.1 2.6-2.6s-1.2-2.7-2.6-2.7c-1.5 0-2.7 1.2-2.7 2.7s1.2 2.6 2.7 2.6m-27 13.6c1.4 0 2.6-1.2 2.6-2.7 0-1.4-1.2-2.6-2.6-2.6-1.5 0-2.7 1.2-2.7 2.6 0 1.5 1.2 2.7 2.7 2.7m13.5 0c1.4 0 2.6-1.2 2.6-2.7 0-1.4-1.2-2.6-2.6-2.6-1.5 0-2.7 1.2-2.7 2.6 0 1.5 1.2 2.7 2.7 2.7m13.5 0c1.4 0 2.6-1.2 2.6-2.7 0-1.4-1.2-2.6-2.6-2.6-1.5 0-2.7 1.2-2.7 2.6 0 1.5 1.2 2.7 2.7 2.7M2.8 100c1.4 0 2.6-1.2 2.6-2.6 0-1.5-1.2-2.7-2.6-2.7-1.5 0-2.7 1.2-2.7 2.7 0 1.4 1.2 2.6 2.7 2.6m13.5 0c1.4 0 2.6-1.2 2.6-2.6 0-1.5-1.2-2.7-2.6-2.7-1.5 0-2.7 1.2-2.7 2.7 0 1.4 1.2 2.6 2.7 2.6m13.5 0c1.4 0 2.6-1.2 2.6-2.6 0-1.5-1.2-2.7-2.6-2.7-1.5 0-2.7 1.2-2.7 2.7 0 1.4 1.2 2.6 2.7 2.6" style="fill:#fefdfd"/><g clip-path="url(#cp2)"><path d="M514 114h-80v80h80z" class="s1"/><path d="M456.3 138.2c1.2 0 2.1-.9 2.1-2.1s-.9-2.1-2.1-2.1-2.1.9-2.1 2.1.9 2.1 2.1 2.1m10.8 0c1.2 0 2.1-.9 2.1-2.1s-.9-2.1-2.1-2.1-2.1.9-2.1 2.1.9 2.1 2.1 2.1m10.8 0c1.2 0 2.1-.9 2.1-2.1s-.9-2.1-2.1-2.1-2.1.9-2.1 2.1.9 2.1 2.1 2.1m10.8 0c1.2 0 2.1-.9 2.1-2.1s-.9-2.1-2.1-2.1-2.1.9-2.1 2.1.9 2.1 2.1 2.1m10.8 0c1.2 0 2.1-.9 2.1-2.1s-.9-2.1-2.1-2.1-2.1.9-2.1 2.1.9 2.1 2.1 2.1m10.8 0c1.2 0 2.1-.9 2.1-2.1s-.9-2.1-2.1-2.1-2.1.9-2.1 2.1.9 2.1 2.1 2.1m10.8 0c1.2 0 2.1-.9 2.1-2.1s-.9-2.1-2.1-2.1-2.1.9-2.1 2.1.9 2.1 2.1 2.1m10.8 0c1.2 0 2.1-.9 2.1-2.1s-.9-2.1-2.1-2.1-2.1.9-2.1 2.1.9 2.1 2.1 2.1m-75.6 10.9c1.2 0 2.1-1 2.1-2.2 0-1.1-.9-2.1-2.1-2.1s-2.1 1-2.1 2.1c0 1.2.9 2.2 2.1 2.2m10.8 0c1.2 0 2.1-1 2.1-2.2 0-1.1-.9-2.1-2.1-2.1s-2.1 1-2.1 2.1c0 1.2.9 2.2 2.1 2.2m10.8 0c1.2 0 2.1-1 2.1-2.2 0-1.1-.9-2.1-2.1-2.1s-2.1 1-2.1 2.1c0 1.2.9 2.2 2.1 2.2m10.8 0c1.2 0 2.1-1 2.1-2.2 0-1.1-.9-2.1-2.1-2.1s-2.1 1-2.1 2.1c0 1.2.9 2.2 2.1 2.2m10.8 0c1.2 0 2.1-1 2.1-2.2 0-1.1-.9-2.1-2.1-2.1s-2.1 1-2.1 2.1c0 1.2.9 2.2 2.1 2.2m10.8 0c1.2 0 2.1-1 2.1-2.2 0-1.1-.9-2.1-2.1-2.1s-2.1 1-2.1 2.1c0 1.2.9 2.2 2.1 2.2m10.8 0c1.2 0 2.1-1 2.1-2.2 0-1.1-.9-2.1-2.1-2.1s-2.1 1-2.1 2.1c0 1.2.9 2.2 2.1 2.2m10.8 0c1.2 0 2.1-1 2.1-2.2 0-1.1-.9-2.1-2.1-2.1s-2.1 1-2.1 2.1c0 1.2.9 2.2 2.1 2.2m-75.6 10.8c1.2 0 2.1-1 2.1-2.1 0-1.2-.9-2.2-2.1-2.2s-2.1 1-2.1 2.2c0 1.1.9 2.1 2.1 2.1m10.8 0c1.2 0 2.1-1 2.1-2.1 0-1.2-.9-2.2-2.1-2.2s-2.1 1-2.1 2.2c0 1.1.9 2.1 2.1 2.1m10.8 0c1.2 0 2.1-1 2.1-2.1 0-1.2-.9-2.2-2.1-2.2s-2.1 1-2.1 2.2c0 1.1.9 2.1 2.1 2.1m10.8 0c1.2 0 2.1-1 2.1-2.1 0-1.2-.9-2.2-2.1-2.2s-2.1 1-2.1 2.2c0 1.1.9 2.1 2.1 2.1m10.8 0c1.2 0 2.1-1 2.1-2.1 0-1.2-.9-2.2-2.1-2.2s-2.1 1-2.1 2.2c0 1.1.9 2.1 2.1 2.1m10.8 0c1.2 0 2.1-1 2.1-2.1 0-1.2-.9-2.2-2.1-2.2s-2.1 1-2.1 2.2c0 1.1.9 2.1 2.1 2.1m10.8 0c1.2 0 2.1-1 2.1-2.1 0-1.2-.9-2.2-2.1-2.2s-2.1 1-2.1 2.2c0 1.1.9 2.1 2.1 2.1m10.8 0c1.2 0 2.1-1 2.1-2.1 0-1.2-.9-2.2-2.1-2.2s-2.1 1-2.1 2.2c0 1.1.9 2.1 2.1 2.1m-75.6 10.8c1.2 0 2.1-.9 2.1-2.1s-.9-2.1-2.1-2.1-2.1.9-2.1 2.1.9 2.1 2.1 2.1m10.8 0c1.2 0 2.1-.9 2.1-2.1s-.9-2.1-2.1-2.1-2.1.9-2.1 2.1.9 2.1 2.1 2.1m10.8 0c1.2 0 2.1-.9 2.1-2.1s-.9-2.1-2.1-2.1-2.1.9-2.1 2.1.9 2.1 2.1 2.1m10.8 0c1.2 0 2.1-.9 2.1-2.1s-.9-2.1-2.1-2.1-2.1.9-2.1 2.1.9 2.1 2.1 2.1m10.8 0c1.2 0 2.1-.9 2.1-2.1s-.9-2.1-2.1-2.1-2.1.9-2.1 2.1.9 2.1 2.1 2.1m10.8 0c1.2 0 2.1-.9 2.1-2.1s-.9-2.1-2.1-2.1-2.1.9-2.1 2.1.9 2.1 2.1 2.1m10.8 0c1.2 0 2.1-.9 2.1-2.1s-.9-2.1-2.1-2.1-2.1.9-2.1 2.1.9 2.1 2.1 2.1m10.8 0c1.2 0 2.1-.9 2.1-2.1s-.9-2.1-2.1-2.1-2.1.9-2.1 2.1.9 2.1 2.1 2.1m-75.6 10.8c1.2 0 2.1-.9 2.1-2.1s-.9-2.1-2.1-2.1-2.1.9-2.1 2.1.9 2.1 2.1 2.1m10.8 0c1.2 0 2.1-.9 2.1-2.1s-.9-2.1-2.1-2.1-2.1.9-2.1 2.1.9 2.1 2.1 2.1m10.8 0c1.2 0 2.1-.9 2.1-2.1s-.9-2.1-2.1-2.1-2.1.9-2.1 2.1.9 2.1 2.1 2.1m10.8 0c1.2 0 2.1-.9 2.1-2.1s-.9-2.1-2.1-2.1-2.1.9-2.1 2.1.9 2.1 2.1 2.1m10.8 0c1.2 0 2.1-.9 2.1-2.1s-.9-2.1-2.1-2.1-2.1.9-2.1 2.1.9 2.1 2.1 2.1m10.8 0c1.2 0 2.1-.9 2.1-2.1s-.9-2.1-2.1-2.1-2.1.9-2.1 2.1.9 2.1 2.1 2.1m10.8 0c1.2 0 2.1-.9 2.1-2.1s-.9-2.1-2.1-2.1-2.1.9-2.1 2.1.9 2.1 2.1 2.1m10.8 0c1.2 0 2.1-.9 2.1-2.1s-.9-2.1-2.1-2.1-2.1.9-2.1 2.1.9 2.1 2.1 2.1m-75.6 10.9c1.2 0 2.1-1 2.1-2.2 0-1.1-.9-2.1-2.1-2.1s-2.1 1-2.1 2.1c0 1.2.9 2.2 2.1 2.2m10.8 0c1.2 0 2.1-1 2.1-2.2 0-1.1-.9-2.1-2.1-2.1s-2.1 1-2.1 2.1c0 1.2.9 2.2 2.1 2.2m10.8 0c1.2 0 2.1-1 2.1-2.2 0-1.1-.9-2.1-2.1-2.1s-2.1 1-2.1 2.1c0 1.2.9 2.2 2.1 2.2m10.8 0c1.2 0 2.1-1 2.1-2.2 0-1.1-.9-2.1-2.1-2.1s-2.1 1-2.1 2.1c0 1.2.9 2.2 2.1 2.2m10.8 0c1.2 0 2.1-1 2.1-2.2 0-1.1-.9-2.1-2.1-2.1s-2.1 1-2.1 2.1c0 1.2.9 2.2 2.1 2.2m10.8 0c1.2 0 2.1-1 2.1-2.2 0-1.1-.9-2.1-2.1-2.1s-2.1 1-2.1 2.1c0 1.2.9 2.2 2.1 2.2m10.8 0c1.2 0 2.1-1 2.1-2.2 0-1.1-.9-2.1-2.1-2.1s-2.1 1-2.1 2.1c0 1.2.9 2.2 2.1 2.2m10.8 0c1.2 0 2.1-1 2.1-2.2 0-1.1-.9-2.1-2.1-2.1s-2.1 1-2.1 2.1c0 1.2.9 2.2 2.1 2.2m-75.6 10.8c1.2 0 2.1-1 2.1-2.1 0-1.2-.9-2.2-2.1-2.2s-2.1 1-2.1 2.2c0 1.1.9 2.1 2.1 2.1m10.8 0c1.2 0 2.1-1 2.1-2.1 0-1.2-.9-2.2-2.1-2.2s-2.1 1-2.1 2.2c0 1.1.9 2.1 2.1 2.1m10.8 0c1.2 0 2.1-1 2.1-2.1 0-1.2-.9-2.2-2.1-2.2s-2.1 1-2.1 2.2c0 1.1.9 2.1 2.1 2.1m10.8 0c1.2 0 2.1-1 2.1-2.1 0-1.2-.9-2.2-2.1-2.2s-2.1 1-2.1 2.2c0 1.1.9 2.1 2.1 2.1m10.8 0c1.2 0 2.1-1 2.1-2.1 0-1.2-.9-2.2-2.1-2.2s-2.1 1-2.1 2.2c0 1.1.9 2.1 2.1 2.1m10.8 0c1.2 0 2.1-1 2.1-2.1 0-1.2-.9-2.2-2.1-2.2s-2.1 1-2.1 2.2c0 1.1.9 2.1 2.1 2.1m10.8 0c1.2 0 2.1-1 2.1-2.1 0-1.2-.9-2.2-2.1-2.2s-2.1 1-2.1 2.2c0 1.1.9 2.1 2.1 2.1m10.8 0c1.2 0 2.1-1 2.1-2.1 0-1.2-.9-2.2-2.1-2.2s-2.1 1-2.1 2.2c0 1.1.9 2.1 2.1 2.1M456.3 214c1.2 0 2.1-.9 2.1-2.1s-.9-2.1-2.1-2.1-2.1.9-2.1 2.1.9 2.1 2.1 2.1m10.8 0c1.2 0 2.1-.9 2.1-2.1s-.9-2.1-2.1-2.1-2.1.9-2.1 2.1.9 2.1 2.1 2.1m10.8 0c1.2 0 2.1-.9 2.1-2.1s-.9-2.1-2.1-2.1-2.1.9-2.1 2.1.9 2.1 2.1 2.1m10.8 0c1.2 0 2.1-.9 2.1-2.1s-.9-2.1-2.1-2.1-2.1.9-2.1 2.1.9 2.1 2.1 2.1m10.8 0c1.2 0 2.1-.9 2.1-2.1s-.9-2.1-2.1-2.1-2.1.9-2.1 2.1.9 2.1 2.1 2.1m10.8 0c1.2 0 2.1-.9 2.1-2.1s-.9-2.1-2.1-2.1-2.1.9-2.1 2.1.9 2.1 2.1 2.1m10.8 0c1.2 0 2.1-.9 2.1-2.1s-.9-2.1-2.1-2.1-2.1.9-2.1 2.1.9 2.1 2.1 2.1m10.8 0c1.2 0 2.1-.9 2.1-2.1s-.9-2.1-2.1-2.1-2.1.9-2.1 2.1.9 2.1 2.1 2.1" style="fill:#333"/></g></g></svg>